<svg version="1.1" viewBox="0.0 0.0 190.66666666666666 309.3333333333333" fill="none" stroke="none" stroke-linecap="square" stroke-miterlimit="10" xmlns:xlink="http://www.w3.org/1999/xlink" xmlns="http://www.w3.org/2000/svg"><clipPath id="p.0"><path d="m0 0l190.66667 0l0 309.33334l-190.66667 0l0 -309.33334z" clip-rule="nonzero"/></clipPath><g clip-path="url(#p.0)"><path fill="#000000" fill-opacity="0.0" d="m0 0l190.66667 0l0 309.33334l-190.66667 0z" fill-rule="evenodd"/><path fill="#ffffff" d="m-0.656168 -1.3149606l190.67717 0l0 309.32285l-190.67717 0z" fill-rule="evenodd"/><path fill="#000000" fill-opacity="0.0" d="m111.84557 13.830955l64.34646 0l0 4.2204714l-64.34646 0z" fill-rule="evenodd"/><path stroke="#000000" stroke-width="1.0" stroke-linejoin="round" stroke-linecap="butt" d="m111.84557 13.830955l64.34646 0l0 4.2204714l-64.34646 0z" fill-rule="evenodd"/><path fill="#000000" fill-opacity="0.0" d="m111.84557 18.061064l64.34646 0l0 4.2204723l-64.34646 0z" fill-rule="evenodd"/><path stroke="#000000" stroke-width="1.0" stroke-linejoin="round" stroke-linecap="butt" d="m111.84557 18.061064l64.34646 0l0 4.2204723l-64.34646 0z" fill-rule="evenodd"/><path fill="#000000" fill-opacity="0.0" d="m111.84557 22.291174l64.34646 0l0 4.2204723l-64.34646 0z" fill-rule="evenodd"/><path stroke="#000000" stroke-width="1.0" stroke-linejoin="round" stroke-linecap="butt" d="m111.84557 22.291174l64.34646 0l0 4.2204723l-64.34646 0z" fill-rule="evenodd"/><path fill="#000000" fill-opacity="0.0" d="m111.84557 26.521284l64.34646 0l0 4.2204723l-64.34646 0z" fill-rule="evenodd"/><path stroke="#000000" stroke-width="1.0" stroke-linejoin="round" stroke-linecap="butt" d="m111.84557 26.521284l64.34646 0l0 4.2204723l-64.34646 0z" fill-rule="evenodd"/><path fill="#000000" fill-opacity="0.0" d="m111.84557 30.751392l64.34646 0l0 4.2204742l-64.34646 0z" fill-rule="evenodd"/><path stroke="#000000" stroke-width="1.0" stroke-linejoin="round" stroke-linecap="butt" d="m111.84557 30.751392l64.34646 0l0 4.2204742l-64.34646 0z" fill-rule="evenodd"/><path fill="#000000" fill-opacity="0.0" d="m111.84557 34.981503l64.34646 0l0 4.2204742l-64.34646 0z" fill-rule="evenodd"/><path stroke="#000000" stroke-width="1.0" stroke-linejoin="round" stroke-linecap="butt" d="m111.84557 34.981503l64.34646 0l0 4.2204742l-64.34646 0z" fill-rule="evenodd"/><path fill="#000000" fill-opacity="0.0" d="m111.84557 39.211613l64.34646 0l0 4.2204742l-64.34646 0z" fill-rule="evenodd"/><path stroke="#000000" stroke-width="1.0" stroke-linejoin="round" stroke-linecap="butt" d="m111.84557 39.211613l64.34646 0l0 4.2204742l-64.34646 0z" fill-rule="evenodd"/><path fill="#000000" fill-opacity="0.0" d="m111.84557 43.441723l64.34646 0l0 4.2204704l-64.34646 0z" fill-rule="evenodd"/><path stroke="#000000" stroke-width="1.0" stroke-linejoin="round" stroke-linecap="butt" d="m111.84557 43.441723l64.34646 0l0 4.2204704l-64.34646 0z" fill-rule="evenodd"/><path fill="#000000" fill-opacity="0.0" d="m120.180664 13.830955l0 33.82677" fill-rule="evenodd"/><path stroke="#000000" stroke-width="1.0" stroke-linejoin="round" stroke-linecap="butt" d="m120.180664 13.830955l0 33.82677" fill-rule="evenodd"/><path fill="#000000" fill-opacity="0.0" d="m133.5154 13.830955l0 33.82677" fill-rule="evenodd"/><path stroke="#000000" stroke-width="1.0" stroke-linejoin="round" stroke-linecap="butt" d="m133.5154 13.830955l0 33.82677" fill-rule="evenodd"/><path fill="#000000" fill-opacity="0.0" d="m141.51625 13.830955l0 33.82677" fill-rule="evenodd"/><path stroke="#000000" stroke-width="1.0" stroke-linejoin="round" stroke-linecap="butt" d="m141.51625 13.830955l0 33.82677" fill-rule="evenodd"/><path fill="#000000" fill-opacity="0.0" d="m152.18404 13.830955l0 33.82677" fill-rule="evenodd"/><path stroke="#000000" stroke-width="1.0" stroke-linejoin="round" stroke-linecap="butt" d="m152.18404 13.830955l0 33.82677" fill-rule="evenodd"/><path fill="#000000" fill-opacity="0.0" d="m105.923836 3.6824148l75.685036 0l0 11.307086l-75.685036 0z" fill-rule="evenodd"/><path fill="#000000" d="m115.661865 9.88179l-1.140625 0l-0.34375 0.640625l-0.609375 0l1.625 -2.8593755l0.65625 0l0.453125 2.8593755l-0.546875 0l-0.09375 -0.640625zm-0.078125 -0.46875l-0.171875 -1.15625l-0.6875 1.15625l0.859375 0zm1.4980469 -0.96875l0.53125 0l-0.046875 0.21875q0.171875 -0.140625 0.3125 -0.203125q0.15625 -0.0625 0.328125 -0.0625q0.328125 0 0.515625 0.234375q0.203125 0.21875 0.203125 0.65625q0 0.5625 -0.34375 0.953125q-0.296875 0.328125 -0.6875 0.328125q-0.421875 0 -0.625 -0.328125l-0.21875 1.078125l-0.5625 0l0.59375 -2.875zm0.34375 1.1875q0 0.25 0.109375 0.390625q0.125 0.125 0.28125 0.125q0.140625 0 0.265625 -0.09375q0.125 -0.109375 0.203125 -0.34375q0.09375 -0.234375 0.09375 -0.4375q0 -0.21875 -0.109375 -0.34375q-0.109375 -0.125 -0.28125 -0.125q-0.15625 0 -0.296875 0.109375q-0.125 0.109375 -0.203125 0.34375q-0.0625 0.21875 -0.0625 0.375zm2.0996094 -1.1875l0.53125 0l-0.046875 0.21875q0.171875 -0.140625 0.3125 -0.203125q0.15625 -0.0625 0.328125 -0.0625q0.328125 0 0.515625 0.234375q0.203125 0.21875 0.203125 0.65625q0 0.5625 -0.34375 0.953125q-0.296875 0.328125 -0.6875 0.328125q-0.421875 0 -0.625 -0.328125l-0.21875 1.078125l-0.5625 0l0.59375 -2.875zm0.34375 1.1875q0 0.25 0.109375 0.390625q0.125 0.125 0.28125 0.125q0.140625 0 0.265625 -0.09375q0.125 -0.109375 0.203125 -0.34375q0.09375 -0.234375 0.09375 -0.4375q0 -0.21875 -0.109375 -0.34375q-0.109375 -0.125 -0.28125 -0.125q-0.15625 0 -0.296875 0.109375q-0.125 0.109375 -0.203125 0.34375q-0.0625 0.21875 -0.0625 0.375zm3.7089844 0.03125l-1.40625 0q-0.015625 0.03125 -0.015625 0.046875q0 0.203125 0.125 0.328125q0.125 0.125 0.28125 0.125q0.28125 0 0.4375 -0.28125l0.5 0.078125q-0.140625 0.3125 -0.390625 0.46875q-0.234375 0.140625 -0.546875 0.140625q-0.421875 0 -0.6875 -0.265625q-0.25 -0.265625 -0.25 -0.703125q0 -0.421875 0.234375 -0.75q0.328125 -0.453125 0.921875 -0.453125q0.375 0 0.59375 0.234375q0.234375 0.234375 0.234375 0.65625q0 0.203125 -0.03125 0.375zm-0.484375 -0.34375q0 -0.046875 0 -0.0625q0 -0.234375 -0.109375 -0.34375q-0.09375 -0.109375 -0.265625 -0.109375q-0.171875 0 -0.3125 0.125q-0.140625 0.125 -0.1875 0.390625l0.875 0zm1.1308594 -0.875l0.53125 0l-0.0625 0.265625q0.203125 -0.171875 0.375 -0.234375q0.171875 -0.078125 0.359375 -0.078125q0.265625 0 0.40625 0.15625q0.140625 0.140625 0.140625 0.375q0 0.109375 -0.0625 0.421875l-0.234375 1.171875l-0.5625 0l0.25 -1.171875q0.046875 -0.265625 0.046875 -0.328125q0 -0.09375 -0.0625 -0.15625q-0.0625 -0.0625 -0.171875 -0.0625q-0.125 0 -0.28125 0.109375q-0.140625 0.09375 -0.234375 0.265625q-0.0625 0.125 -0.140625 0.484375l-0.171875 0.859375l-0.5625 0l0.4375 -2.078125zm3.9121094 2.078125l-0.53125 0l0.046875 -0.21875q-0.15625 0.140625 -0.3125 0.203125q-0.140625 0.0625 -0.328125 0.0625q-0.3125 0 -0.515625 -0.21875q-0.203125 -0.21875 -0.203125 -0.65625q0 -0.484375 0.28125 -0.890625q0.28125 -0.40625 0.75 -0.40625q0.421875 0 0.625 0.328125l0.21875 -1.0625005l0.5625 0l-0.59375 2.8593755zm-1.296875 -0.84375q0 0.21875 0.109375 0.34375q0.109375 0.125 0.28125 0.125q0.15625 0 0.28125 -0.09375q0.140625 -0.109375 0.21875 -0.328125q0.078125 -0.21875 0.078125 -0.40625q0 -0.234375 -0.125 -0.359375q-0.125 -0.140625 -0.28125 -0.140625q-0.25 0 -0.40625 0.28125q-0.15625 0.265625 -0.15625 0.578125zm1.9277344 -0.453125l1.09375 0l-0.109375 0.53125l-1.09375 0l0.109375 -0.53125zm1.3164062 0.4375q0 -0.578125 0.3125 -0.921875q0.328125 -0.34375 0.859375 -0.34375q0.453125 0 0.703125 0.25q0.265625 0.25 0.265625 0.6875q0 0.5 -0.328125 0.875q-0.3125 0.359375 -0.84375 0.359375q-0.296875 0 -0.53125 -0.109375q-0.21875 -0.125 -0.328125 -0.328125q-0.109375 -0.21875 -0.109375 -0.46875zm1.59375 -0.40625q0 -0.203125 -0.125 -0.3125q-0.109375 -0.125 -0.296875 -0.125q-0.171875 0 -0.3125 0.109375q-0.140625 0.109375 -0.21875 0.328125q-0.078125 0.21875 -0.078125 0.390625q0 0.234375 0.109375 0.359375q0.125 0.125 0.3125 0.125q0.234375 0 0.390625 -0.1875q0.21875 -0.28125 0.21875 -0.6875zm1.2089844 -0.8125l0.53125 0l-0.0625 0.265625q0.203125 -0.171875 0.375 -0.234375q0.171875 -0.078125 0.359375 -0.078125q0.265625 0 0.40625 0.15625q0.140625 0.140625 0.140625 0.375q0 0.109375 -0.0625 0.421875l-0.234375 1.171875l-0.5625 0l0.25 -1.171875q0.046875 -0.265625 0.046875 -0.328125q0 -0.09375 -0.0625 -0.15625q-0.0625 -0.0625 -0.171875 -0.0625q-0.125 0 -0.28125 0.109375q-0.140625 0.09375 -0.234375 0.265625q-0.0625 0.125 -0.140625 0.484375l-0.171875 0.859375l-0.5625 0l0.4375 -2.078125zm1.9902344 2.078125l0.59375 -2.8593755l0.5625 0l-0.59375 2.8593755l-0.5625 0zm1.2832031 -2.078125l0.5625 0l0.140625 1.03125q0.0625 0.40625 0.0625 0.5625q0.109375 -0.3125 0.296875 -0.671875l0.5 -0.921875l0.59375 0l-1.28125 2.28125q-0.15625 0.28125 -0.25 0.390625q-0.09375 0.125 -0.21875 0.1875q-0.125 0.0625 -0.3125 0.0625q-0.171875 0 -0.390625 -0.0625l0.046875 -0.421875q0.09375 0.03125 0.1875 0.03125q0.265625 0 0.4375 -0.390625l-0.375 -2.078125zm3.2578125 1.15625l0.5625 -0.03125q0.015625 0.265625 0.09375 0.359375q0.125 0.15625 0.484375 0.15625q0.28125 0 0.40625 -0.109375q0.140625 -0.109375 0.140625 -0.25q0 -0.125 -0.109375 -0.21875q-0.078125 -0.0625 -0.421875 -0.203125q-0.328125 -0.140625 -0.484375 -0.234375q-0.140625 -0.109375 -0.234375 -0.265625q-0.078125 -0.15625 -0.078125 -0.359375q0 -0.359375 0.25 -0.5937505q0.265625 -0.234375 0.765625 -0.234375q0.5 0 0.765625 0.234375q0.28125 0.23437548 0.3125 0.6250005l-0.5625 0.03125q-0.015625 -0.21875 -0.15625 -0.328125q-0.125 -0.109375 -0.359375 -0.109375q-0.25 0 -0.359375 0.09375q-0.09375 0.078125 -0.09375 0.21875q0 0.125 0.09375 0.203125q0.09375 0.078125 0.421875 0.21875q0.484375 0.21875 0.625 0.34375q0.203125 0.203125 0.203125 0.5q0 0.390625 -0.296875 0.65625q-0.296875 0.265625 -0.84375 0.265625q-0.359375 0 -0.640625 -0.125q-0.265625 -0.125 -0.375 -0.34375q-0.109375 -0.21875 -0.109375 -0.5zm4.5273438 0.859375q-0.140625 0.0625 -0.296875 0.078125q-0.140625 0.03125 -0.296875 0.03125q-0.515625 0 -0.84375 -0.328125q-0.328125 -0.328125 -0.328125 -0.84375q0 -0.4375 0.203125 -0.875q0.203125 -0.453125 0.5625 -0.6718755q0.375 -0.234375 0.84375 -0.234375q0.53125 0 0.859375 0.328125q0.328125 0.32812548 0.328125 0.8750005q0 0.40625 -0.1875 0.796875q-0.171875 0.375 -0.453125 0.625q0.1875 0.171875 0.390625 0.296875l-0.28125 0.359375q-0.265625 -0.125 -0.5 -0.4375zm0.046875 -0.625q0.171875 -0.1875 0.28125 -0.46875q0.109375 -0.28125 0.109375 -0.546875q0 -0.328125 -0.1875 -0.515625q-0.171875 -0.203125 -0.453125 -0.203125q-0.1875 0 -0.359375 0.09375q-0.15625 0.078125 -0.296875 0.25q-0.140625 0.171875 -0.234375 0.421875q-0.078125 0.25 -0.078125 0.5q0 0.328125 0.171875 0.53125q0.1875 0.1875 0.484375 0.1875q0.078125 0 0.171875 -0.015625q0.03125 -0.015625 0.03125 -0.015625q0 0 0 -0.015625q0 -0.015625 -0.046875 -0.078125q-0.125 -0.109375 -0.265625 -0.15625l0.21875 -0.328125q0.265625 0.125 0.453125 0.359375zm1.1425781 0.6875l0.59375 -2.8593755l0.59375 0l-0.5 2.3750005l1.453125 0l-0.09375 0.484375l-2.046875 0zm4.701172 0l-0.578125 0l0.5 -2.390625l-0.84375 0l0.09375 -0.46875048l2.265625 0l-0.109375 0.46875048l-0.828125 0l-0.5 2.390625zm1.8417969 -1.484375l-0.546875 -0.046875q0.09375 -0.28125 0.328125 -0.4375q0.234375 -0.15625 0.609375 -0.15625q0.40625 0 0.59375 0.171875q0.203125 0.15625 0.203125 0.390625q0 0.09375 -0.03125 0.203125q-0.015625 0.09375 -0.109375 0.546875q-0.078125 0.375 -0.078125 0.515625q0 0.140625 0.046875 0.296875l-0.546875 0q-0.03125 -0.109375 -0.046875 -0.234375q-0.125 0.140625 -0.28125 0.21875q-0.15625 0.0625 -0.3125 0.0625q-0.265625 0 -0.4375 -0.171875q-0.15625 -0.171875 -0.15625 -0.4375q0 -0.296875 0.171875 -0.46875q0.1875 -0.171875 0.671875 -0.21875q0.390625 -0.03125 0.53125 -0.078125q0.03125 -0.109375 0.03125 -0.1875q0 -0.09375 -0.078125 -0.140625q-0.0625 -0.0625 -0.203125 -0.0625q-0.15625 0 -0.25 0.0625q-0.078125 0.0625 -0.109375 0.171875zm0.53125 0.515625q-0.046875 0.015625 -0.140625 0.03125q-0.421875 0.046875 -0.546875 0.140625q-0.09375 0.078125 -0.09375 0.1875q0 0.109375 0.0625 0.171875q0.078125 0.0625 0.203125 0.0625q0.125 0 0.234375 -0.0625q0.109375 -0.0625 0.15625 -0.15625q0.0625 -0.09375 0.109375 -0.296875l0.015625 -0.078125zm0.8808594 0.96875l0.609375 -2.8593755l0.5625 0l-0.203125 0.9531255q0.15625 -0.125 0.28125 -0.171875q0.140625 -0.046875 0.296875 -0.046875q0.328125 0 0.515625 0.21875q0.203125 0.21875 0.203125 0.640625q0 0.28125 -0.09375 0.546875q-0.09375 0.265625 -0.25 0.4375q-0.15625 0.171875 -0.328125 0.25q-0.171875 0.078125 -0.359375 0.078125q-0.4375 0 -0.640625 -0.390625l-0.078125 0.34375l-0.515625 0zm0.765625 -0.84375q0 0.203125 0.109375 0.34375q0.125 0.125 0.28125 0.125q0.140625 0 0.265625 -0.09375q0.125 -0.109375 0.203125 -0.328125q0.09375 -0.234375 0.09375 -0.453125q0 -0.21875 -0.109375 -0.34375q-0.109375 -0.125 -0.28125 -0.125q-0.203125 0 -0.359375 0.1875q-0.203125 0.265625 -0.203125 0.6875zm1.6933594 0.84375l0.59375 -2.8593755l0.5625 0l-0.59375 2.8593755l-0.5625 0zm3.1425781 -0.859375l-1.40625 0q-0.015625 0.03125 -0.015625 0.046875q0 0.203125 0.125 0.328125q0.125 0.125 0.28125 0.125q0.28125 0 0.4375 -0.28125l0.5 0.078125q-0.140625 0.3125 -0.390625 0.46875q-0.234375 0.140625 -0.546875 0.140625q-0.421875 0 -0.6875 -0.265625q-0.25 -0.265625 -0.25 -0.703125q0 -0.421875 0.234375 -0.75q0.328125 -0.453125 0.921875 -0.453125q0.375 0 0.59375 0.234375q0.234375 0.234375 0.234375 0.65625q0 0.203125 -0.03125 0.375zm-0.484375 -0.34375q0 -0.046875 0 -0.0625q0 -0.234375 -0.109375 -0.34375q-0.09375 -0.109375 -0.265625 -0.109375q-0.171875 0 -0.3125 0.125q-0.140625 0.125 -0.1875 0.390625l0.875 0zm1.8828125 0.34375q0 -0.578125 0.3125 -0.921875q0.328125 -0.34375 0.859375 -0.34375q0.453125 0 0.703125 0.25q0.265625 0.25 0.265625 0.6875q0 0.5 -0.328125 0.875q-0.3125 0.359375 -0.84375 0.359375q-0.296875 0 -0.53125 -0.109375q-0.21875 -0.125 -0.328125 -0.328125q-0.109375 -0.21875 -0.109375 -0.46875zm1.59375 -0.40625q0 -0.203125 -0.125 -0.3125q-0.109375 -0.125 -0.296875 -0.125q-0.171875 0 -0.3125 0.109375q-0.140625 0.109375 -0.21875 0.328125q-0.078125 0.21875 -0.078125 0.390625q0 0.234375 0.109375 0.359375q0.125 0.125 0.3125 0.125q0.234375 0 0.390625 -0.1875q0.21875 -0.28125 0.21875 -0.6875zm1.1621094 -0.8125l0.53125 0l-0.09375 0.40625q0.296875 -0.453125 0.640625 -0.453125q0.125 0 0.25 0.0625l-0.203125 0.453125q-0.078125 -0.015625 -0.171875 -0.015625q-0.140625 0 -0.296875 0.109375q-0.140625 0.109375 -0.234375 0.296875q-0.078125 0.171875 -0.15625 0.5625l-0.140625 0.65625l-0.5625 0l0.4375 -2.078125zm3.6992188 2.078125l-0.625 0l-0.515625 -2.8593755l0.59375 0l0.359375 2.1562505l1.1875 -2.1562505l0.578125 0l-1.578125 2.8593755zm1.6914062 -2.8593755l0.546875 0l-0.09375 0.5000005l-0.5625 0l0.109375 -0.5000005zm-0.171875 0.7812505l0.5625 0l-0.4375 2.078125l-0.5625 0l0.4375 -2.078125zm2.7050781 1.21875l-1.40625 0q-0.015625 0.03125 -0.015625 0.046875q0 0.203125 0.125 0.328125q0.125 0.125 0.28125 0.125q0.28125 0 0.4375 -0.28125l0.5 0.078125q-0.140625 0.3125 -0.390625 0.46875q-0.234375 0.140625 -0.546875 0.140625q-0.421875 0 -0.6875 -0.265625q-0.25 -0.265625 -0.25 -0.703125q0 -0.421875 0.234375 -0.75q0.328125 -0.453125 0.921875 -0.453125q0.375 0 0.59375 0.234375q0.234375 0.234375 0.234375 0.65625q0 0.203125 -0.03125 0.375zm-0.484375 -0.34375q0 -0.046875 0 -0.0625q0 -0.234375 -0.109375 -0.34375q-0.09375 -0.109375 -0.265625 -0.109375q-0.171875 0 -0.3125 0.125q-0.140625 0.125 -0.1875 0.390625l0.875 0zm2.8496094 1.203125l-0.53125 0l-0.09375 -1.328125l-0.640625 1.328125l-0.515625 0l-0.265625 -2.078125l0.5 0l0.15625 1.390625l0.640625 -1.390625l0.515625 0l0.0625 1.390625l0.640625 -1.390625l0.5625 0l-1.03125 2.078125z" fill-rule="nonzero"/><path fill="#cfe2f3" d="m125.01319 72.3186l11.874016 0l0 29.16536l-11.874016 0z" fill-rule="evenodd"/><path stroke="#000000" stroke-width="2.0" stroke-linejoin="round" stroke-linecap="butt" d="m125.01319 72.3186l11.874016 0l0 29.16536l-11.874016 0z" fill-rule="evenodd"/><path fill="#cfe2f3" d="m148.3836 72.3186l9.102371 0l0 19.370079l-9.102371 0z" fill-rule="evenodd"/><path stroke="#000000" stroke-width="2.0" stroke-linejoin="round" stroke-linecap="butt" d="m148.3836 72.3186l9.102371 0l0 19.370079l-9.102371 0z" fill-rule="evenodd"/><path fill="#cfe2f3" d="m160.63509 72.12879l6.015747 0l0 23.527565l-6.015747 0z" fill-rule="evenodd"/><path stroke="#000000" stroke-width="2.0" stroke-linejoin="round" stroke-linecap="butt" d="m160.63509 72.12879l6.015747 0l0 23.527565l-6.015747 0z" fill-rule="evenodd"/><path fill="#000000" fill-opacity="0.0" d="m118.17957 63.154243l24.661415 0l0 10.110237l-24.661415 0z" fill-rule="evenodd"/><path fill="#000000" d="m124.19693 68.24549l0.234375 -0.015625q0 0.09375 0.03125 0.171875q0.03125 0.078125 0.109375 0.125q0.09375 0.03125 0.203125 0.03125q0.15625 0 0.234375 -0.0625q0.078125 -0.0625 0.078125 -0.140625q0 -0.0625 -0.046875 -0.109375q-0.046875 -0.0625 -0.234375 -0.140625q-0.1875 -0.078125 -0.234375 -0.109375q-0.09375 -0.0625 -0.140625 -0.125q-0.046875 -0.078125 -0.046875 -0.171875q0 -0.15625 0.125 -0.265625q0.140625 -0.125 0.375 -0.125q0.265625 0 0.390625 0.125q0.140625 0.109375 0.140625 0.3125l-0.21875 0.015625q-0.015625 -0.125 -0.09375 -0.203125q-0.078125 -0.078125 -0.234375 -0.078125q-0.125 0 -0.203125 0.0625q-0.0625 0.0625 -0.0625 0.125q0 0.0625 0.0625 0.109375q0.046875 0.03125 0.203125 0.109375q0.265625 0.109375 0.34375 0.171875q0.109375 0.109375 0.109375 0.265625q0 0.109375 -0.0625 0.203125q-0.0625 0.09375 -0.203125 0.15625q-0.125 0.0625 -0.296875 0.0625q-0.234375 0 -0.40625 -0.125q-0.171875 -0.109375 -0.15625 -0.375zm1.3125 0.46875l0.390625 -1.90625l0.234375 0l-0.25 1.1875l0.6875 -0.65625l0.3125 0l-0.578125 0.515625l0.34375 0.859375l-0.25 0l-0.28125 -0.703125l-0.28125 0.25l-0.09375 0.453125l-0.234375 0zm1.65625 -1.640625l0.0625 -0.265625l0.21875 0l-0.046875 0.265625l-0.234375 0zm-0.34375 1.640625l0.28125 -1.375l0.25 0l-0.296875 1.375l-0.234375 0zm0.48075867 0.53125l0.40625 -1.90625l0.21875 0l-0.046875 0.1875q0.125 -0.125 0.21875 -0.171875q0.09375 -0.046875 0.203125 -0.046875q0.1875 0 0.3125 0.140625q0.140625 0.140625 0.140625 0.40625q0 0.21875 -0.078125 0.40625q-0.0625 0.171875 -0.171875 0.28125q-0.09375 0.109375 -0.203125 0.15625q-0.109375 0.046875 -0.21875 0.046875q-0.25 0 -0.390625 -0.25l-0.15625 0.75l-0.234375 0zm0.46875 -1.09375q0 0.15625 0.015625 0.21875q0.03125 0.078125 0.109375 0.140625q0.078125 0.046875 0.171875 0.046875q0.203125 0 0.328125 -0.21875q0.125 -0.234375 0.125 -0.484375q0 -0.171875 -0.09375 -0.265625q-0.078125 -0.09375 -0.203125 -0.09375q-0.078125 0 -0.15625 0.046875q-0.078125 0.046875 -0.15625 0.140625q-0.0625 0.09375 -0.109375 0.234375q-0.03125 0.125 -0.03125 0.234375zm1.840271 0.5625l0.40625 -1.90625l0.234375 0l-0.390625 1.90625l-0.25 0zm1.6213837 -0.46875l0.234375 0.03125q-0.046875 0.15625 -0.234375 0.3125q-0.171875 0.15625 -0.421875 0.15625q-0.140625 0 -0.28125 -0.0625q-0.125 -0.078125 -0.1875 -0.203125q-0.0625 -0.140625 -0.0625 -0.3125q0 -0.234375 0.09375 -0.4375q0.109375 -0.21875 0.265625 -0.3125q0.171875 -0.109375 0.375 -0.109375q0.25 0 0.390625 0.15625q0.140625 0.140625 0.140625 0.40625q0 0.109375 -0.015625 0.21875l-1.015625 0q0 0.03125 0 0.0625q0 0.203125 0.078125 0.3125q0.09375 0.09375 0.234375 0.09375q0.109375 0 0.21875 -0.078125q0.125 -0.078125 0.1875 -0.234375zm-0.671875 -0.34375l0.765625 0q0 -0.03125 0 -0.046875q0 -0.171875 -0.09375 -0.265625q-0.078125 -0.09375 -0.21875 -0.09375q-0.15625 0 -0.28125 0.109375q-0.109375 0.09375 -0.171875 0.296875zm2.0710297 0.609375q-0.203125 0.234375 -0.421875 0.234375q-0.1875 0 -0.328125 -0.140625q-0.125 -0.15625 -0.125 -0.421875q0 -0.25 0.09375 -0.453125q0.109375 -0.21875 0.265625 -0.3125q0.15625 -0.109375 0.3125 -0.109375q0.25 0 0.390625 0.25l0.15625 -0.75l0.234375 0l-0.40625 1.90625l-0.21875 0l0.046875 -0.203125zm-0.640625 -0.375q0 0.140625 0.03125 0.234375q0.03125 0.078125 0.09375 0.140625q0.0625 0.046875 0.171875 0.046875q0.15625 0 0.28125 -0.171875q0.171875 -0.21875 0.171875 -0.546875q0 -0.15625 -0.09375 -0.25q-0.078125 -0.09375 -0.203125 -0.09375q-0.09375 0 -0.15625 0.046875q-0.0625 0.03125 -0.140625 0.125q-0.0625 0.09375 -0.109375 0.234375q-0.046875 0.125 -0.046875 0.234375zm1.1804047 0.703125l0.234375 0.015625q0 0.09375 0.015625 0.125q0.03125 0.046875 0.078125 0.0625q0.0625 0.03125 0.15625 0.03125q0.21875 0 0.3125 -0.109375q0.0625 -0.078125 0.109375 -0.328125l0.03125 -0.109375q-0.1875 0.1875 -0.390625 0.1875q-0.21875 0 -0.359375 -0.15625q-0.140625 -0.15625 -0.140625 -0.4375q0 -0.234375 0.109375 -0.421875q0.109375 -0.1875 0.265625 -0.28125q0.15625 -0.109375 0.3125 -0.109375q0.28125 0 0.421875 0.25l0.046875 -0.21875l0.21875 0l-0.28125 1.328125q-0.046875 0.21875 -0.125 0.34375q-0.0625 0.125 -0.203125 0.1875q-0.125 0.0625 -0.296875 0.0625q-0.171875 0 -0.296875 -0.046875q-0.109375 -0.03125 -0.171875 -0.125q-0.0625 -0.078125 -0.0625 -0.1875q0 -0.03125 0.015625 -0.0625zm0.296875 -0.734375q0 0.140625 0.015625 0.21875q0.046875 0.09375 0.109375 0.15625q0.078125 0.046875 0.171875 0.046875q0.109375 0 0.21875 -0.078125q0.125 -0.09375 0.1875 -0.25q0.078125 -0.171875 0.078125 -0.328125q0 -0.171875 -0.09375 -0.265625q-0.09375 -0.109375 -0.234375 -0.109375q-0.09375 0 -0.171875 0.046875q-0.078125 0.046875 -0.15625 0.140625q-0.0625 0.09375 -0.09375 0.234375q-0.03125 0.125 -0.03125 0.1875zm2.1960297 0.140625l0.234375 0.03125q-0.046875 0.15625 -0.234375 0.3125q-0.171875 0.15625 -0.421875 0.15625q-0.140625 0 -0.28125 -0.0625q-0.125 -0.078125 -0.1875 -0.203125q-0.0625 -0.140625 -0.0625 -0.3125q0 -0.234375 0.09375 -0.4375q0.109375 -0.21875 0.265625 -0.3125q0.171875 -0.109375 0.375 -0.109375q0.25 0 0.390625 0.15625q0.140625 0.140625 0.140625 0.40625q0 0.109375 -0.015625 0.21875l-1.015625 0q0 0.03125 0 0.0625q0 0.203125 0.078125 0.3125q0.09375 0.09375 0.234375 0.09375q0.109375 0 0.21875 -0.078125q0.125 -0.078125 0.1875 -0.234375zm-0.671875 -0.34375l0.765625 0q0 -0.03125 0 -0.046875q0 -0.171875 -0.09375 -0.265625q-0.078125 -0.09375 -0.21875 -0.09375q-0.15625 0 -0.28125 0.109375q-0.109375 0.09375 -0.171875 0.296875zm1.1491547 0.8125l0.28125 -1.375l0.203125 0l-0.046875 0.28125q0.09375 -0.15625 0.1875 -0.234375q0.109375 -0.078125 0.21875 -0.078125q0.078125 0 0.171875 0.046875l-0.09375 0.21875q-0.0625 -0.046875 -0.125 -0.046875q-0.125 0 -0.265625 0.140625q-0.125 0.140625 -0.203125 0.5l-0.109375 0.546875l-0.21875 0z" fill-rule="nonzero"/><path fill="#000000" fill-opacity="0.0" d="m144.84906 63.154243l24.661407 0l0 10.110237l-24.661407 0z" fill-rule="evenodd"/><path fill="#000000" d="m152.4556 68.21424l0.25 0.015625q-0.09375 0.265625 -0.265625 0.390625q-0.15625 0.125 -0.359375 0.125q-0.234375 0 -0.375 -0.140625q-0.125 -0.15625 -0.125 -0.40625q0 -0.234375 0.078125 -0.453125q0.09375 -0.21875 0.25 -0.328125q0.171875 -0.109375 0.390625 -0.109375q0.21875 0 0.34375 0.125q0.140625 0.125 0.140625 0.328125l-0.234375 0.015625q0 -0.125 -0.078125 -0.203125q-0.078125 -0.078125 -0.1875 -0.078125q-0.140625 0 -0.25 0.09375q-0.109375 0.09375 -0.171875 0.28125q-0.046875 0.171875 -0.046875 0.34375q0 0.171875 0.078125 0.265625q0.078125 0.078125 0.1875 0.078125q0.109375 0 0.21875 -0.078125q0.109375 -0.09375 0.15625 -0.265625zm0.390625 0.5l0.28125 -1.375l0.203125 0l-0.046875 0.28125q0.09375 -0.15625 0.1875 -0.234375q0.109375 -0.078125 0.21875 -0.078125q0.078125 0 0.171875 0.046875l-0.09375 0.21875q-0.0625 -0.046875 -0.125 -0.046875q-0.125 0 -0.265625 0.140625q-0.125 0.140625 -0.203125 0.5l-0.109375 0.546875l-0.21875 0zm1.822052 -0.25q-0.25 0.28125 -0.515625 0.28125q-0.15625 0 -0.25 -0.09375q-0.09375 -0.09375 -0.09375 -0.21875q0 -0.09375 0.03125 -0.296875l0.171875 -0.796875l0.234375 0l-0.1875 0.875q-0.015625 0.109375 -0.015625 0.171875q0 0.078125 0.046875 0.125q0.046875 0.046875 0.140625 0.046875q0.09375 0 0.1875 -0.046875q0.09375 -0.046875 0.15625 -0.125q0.078125 -0.09375 0.125 -0.203125q0.015625 -0.078125 0.0625 -0.25l0.125 -0.59375l0.234375 0l-0.296875 1.375l-0.203125 0l0.046875 -0.25zm0.53977966 0.25l0.28125 -1.375l0.234375 0l-0.046875 0.21875q0.125 -0.140625 0.234375 -0.1875q0.109375 -0.0625 0.21875 -0.0625q0.125 0 0.21875 0.078125q0.09375 0.0625 0.109375 0.171875q0.109375 -0.125 0.21875 -0.1875q0.125 -0.0625 0.25 -0.0625q0.171875 0 0.25 0.078125q0.09375 0.078125 0.09375 0.234375q0 0.0625 -0.03125 0.203125l-0.1875 0.890625l-0.234375 0l0.1875 -0.90625q0.03125 -0.109375 0.03125 -0.15625q0 -0.078125 -0.046875 -0.109375q-0.03125 -0.046875 -0.109375 -0.046875q-0.109375 0 -0.21875 0.0625q-0.109375 0.0625 -0.171875 0.171875q-0.0625 0.109375 -0.109375 0.3125l-0.140625 0.671875l-0.234375 0l0.203125 -0.9375q0.015625 -0.09375 0.015625 -0.125q0 -0.0625 -0.046875 -0.109375q-0.03125 -0.046875 -0.109375 -0.046875q-0.09375 0 -0.203125 0.0625q-0.109375 0.0625 -0.1875 0.1875q-0.0625 0.109375 -0.109375 0.3125l-0.125 0.65625l-0.234375 0zm2.759552 -0.1875l-0.046875 0.1875q-0.078125 0.015625 -0.15625 0.015625q-0.140625 0 -0.21875 -0.0625q-0.0625 -0.046875 -0.0625 -0.140625q0 -0.046875 0.03125 -0.203125l0.15625 -0.8125l-0.171875 0l0.03125 -0.171875l0.1875 0l0.0625 -0.34375l0.28125 -0.15625l-0.109375 0.5l0.234375 0l-0.046875 0.171875l-0.234375 0l-0.15625 0.765625q-0.03125 0.140625 -0.03125 0.171875q0 0.046875 0.015625 0.078125q0.03125 0.015625 0.09375 0.015625q0.078125 0 0.140625 -0.015625zm0.19111633 0.1875l0.28125 -1.375l0.203125 0l-0.046875 0.28125q0.09375 -0.15625 0.1875 -0.234375q0.109375 -0.078125 0.21875 -0.078125q0.078125 0 0.171875 0.046875l-0.09375 0.21875q-0.0625 -0.046875 -0.125 -0.046875q-0.125 0 -0.265625 0.140625q-0.125 0.140625 -0.203125 0.5l-0.109375 0.546875l-0.21875 0zm1.806427 -0.171875q-0.125 0.109375 -0.234375 0.15625q-0.109375 0.046875 -0.234375 0.046875q-0.203125 0 -0.328125 -0.109375q-0.109375 -0.109375 -0.109375 -0.296875q0 -0.109375 0.046875 -0.1875q0.0625 -0.09375 0.140625 -0.140625q0.09375 -0.0625 0.21875 -0.09375q0.078125 -0.015625 0.296875 -0.015625q0.234375 -0.015625 0.328125 -0.046875q0.03125 -0.09375 0.03125 -0.15625q0 -0.09375 -0.0625 -0.140625q-0.078125 -0.0625 -0.234375 -0.0625q-0.15625 0 -0.25 0.078125q-0.09375 0.0625 -0.140625 0.171875l-0.234375 -0.015625q0.078125 -0.203125 0.234375 -0.3125q0.15625 -0.109375 0.390625 -0.109375q0.265625 0 0.40625 0.125q0.109375 0.078125 0.109375 0.234375q0 0.109375 -0.03125 0.25l-0.0625 0.34375q-0.046875 0.15625 -0.046875 0.265625q0 0.0625 0.03125 0.1875l-0.234375 0q-0.015625 -0.0625 -0.03125 -0.171875zm0.09375 -0.53125q-0.0625 0.03125 -0.125 0.046875q-0.046875 0 -0.171875 0.015625q-0.203125 0.015625 -0.296875 0.046875q-0.078125 0.015625 -0.125 0.078125q-0.046875 0.0625 -0.046875 0.140625q0 0.09375 0.0625 0.15625q0.078125 0.0625 0.203125 0.0625q0.125 0 0.21875 -0.0625q0.109375 -0.0625 0.171875 -0.171875q0.0625 -0.109375 0.109375 -0.3125zm0.78977966 -0.9375l0.0625 -0.265625l0.21875 0l-0.046875 0.265625l-0.234375 0zm-0.34375 1.640625l0.28125 -1.375l0.25 0l-0.296875 1.375l-0.234375 0zm0.57450867 0l0.40625 -1.90625l0.234375 0l-0.390625 1.90625l-0.25 0zm0.63700867 -0.46875l0.234375 -0.015625q0 0.09375 0.03125 0.171875q0.03125 0.078125 0.109375 0.125q0.09375 0.03125 0.203125 0.03125q0.15625 0 0.234375 -0.0625q0.078125 -0.0625 0.078125 -0.140625q0 -0.0625 -0.046875 -0.109375q-0.046875 -0.0625 -0.234375 -0.140625q-0.1875 -0.078125 -0.234375 -0.109375q-0.09375 -0.0625 -0.140625 -0.125q-0.046875 -0.078125 -0.046875 -0.171875q0 -0.15625 0.125 -0.265625q0.140625 -0.125 0.375 -0.125q0.265625 0 0.390625 0.125q0.140625 0.109375 0.140625 0.3125l-0.21875 0.015625q-0.015625 -0.125 -0.09375 -0.203125q-0.078125 -0.078125 -0.234375 -0.078125q-0.125 0 -0.203125 0.0625q-0.0625 0.0625 -0.0625 0.125q0 0.0625 0.0625 0.109375q0.046875 0.03125 0.203125 0.109375q0.265625 0.109375 0.34375 0.171875q0.109375 0.109375 0.109375 0.265625q0 0.109375 -0.0625 0.203125q-0.0625 0.09375 -0.203125 0.15625q-0.125 0.0625 -0.296875 0.0625q-0.234375 0 -0.40625 -0.125q-0.171875 -0.109375 -0.15625 -0.375z" fill-rule="nonzero"/><path fill="#000000" fill-opacity="0.0" d="m110.84777 54.456577l66.33071 0l0 11.307087l-66.33071 0z" fill-rule="evenodd"/><path fill="#000000" d="m124.24164 60.171577q0 -0.25 0.078125 -0.53125q0.109375 -0.375 0.3125 -0.65625q0.203125 -0.28125 0.515625 -0.4375q0.3125 -0.15625 0.703125 -0.15625q0.53125 0 0.859375 0.328125q0.328125 0.328125 0.328125 0.875q0 0.453125 -0.21875 0.875q-0.203125 0.421875 -0.578125 0.65625q-0.359375 0.21875 -0.828125 0.21875q-0.390625 0 -0.671875 -0.171875q-0.265625 -0.1875 -0.390625 -0.453125q-0.109375 -0.265625 -0.109375 -0.546875zm0.59375 -0.015625q0 0.296875 0.171875 0.5q0.1875 0.203125 0.46875 0.203125q0.25 0 0.46875 -0.15625q0.21875 -0.15625 0.359375 -0.46875q0.140625 -0.328125 0.140625 -0.640625q0 -0.328125 -0.1875 -0.515625q-0.171875 -0.203125 -0.453125 -0.203125q-0.4375 0 -0.703125 0.40625q-0.265625 0.40625 -0.265625 0.875zm2.7519531 -0.9375l0.53125 0l-0.046875 0.21875q0.171875 -0.140625 0.3125 -0.203125q0.15625 -0.0625 0.328125 -0.0625q0.328125 0 0.515625 0.234375q0.203125 0.21875 0.203125 0.65625q0 0.5625 -0.34375 0.953125q-0.296875 0.328125 -0.6875 0.328125q-0.421875 0 -0.625 -0.328125l-0.21875 1.078125l-0.5625 0l0.59375 -2.875zm0.34375 1.1875q0 0.25 0.109375 0.390625q0.125 0.125 0.28125 0.125q0.140625 0 0.265625 -0.09375q0.125 -0.109375 0.203125 -0.34375q0.09375 -0.234375 0.09375 -0.4375q0 -0.21875 -0.109375 -0.34375q-0.109375 -0.125 -0.28125 -0.125q-0.15625 0 -0.296875 0.109375q-0.125 0.109375 -0.203125 0.34375q-0.0625 0.21875 -0.0625 0.375zm2.4746094 -0.59375l-0.546875 -0.046875q0.09375 -0.28125 0.328125 -0.4375q0.234375 -0.15625 0.609375 -0.15625q0.40625 0 0.59375 0.171875q0.203125 0.15625 0.203125 0.390625q0 0.09375 -0.03125 0.203125q-0.015625 0.09375 -0.109375 0.546875q-0.078125 0.375 -0.078125 0.515625q0 0.140625 0.046875 0.296875l-0.546875 0q-0.03125 -0.109375 -0.046875 -0.234375q-0.125 0.140625 -0.28125 0.21875q-0.15625 0.0625 -0.3125 0.0625q-0.265625 0 -0.4375 -0.171875q-0.15625 -0.171875 -0.15625 -0.4375q0 -0.296875 0.171875 -0.46875q0.1875 -0.171875 0.671875 -0.21875q0.390625 -0.03125 0.53125 -0.078125q0.03125 -0.109375 0.03125 -0.1875q0 -0.09375 -0.078125 -0.140625q-0.0625 -0.0625 -0.203125 -0.0625q-0.15625 0 -0.25 0.0625q-0.078125 0.0625 -0.109375 0.171875zm0.53125 0.515625q-0.046875 0.015625 -0.140625 0.03125q-0.421875 0.046875 -0.546875 0.140625q-0.09375 0.078125 -0.09375 0.1875q0 0.109375 0.0625 0.171875q0.078125 0.0625 0.203125 0.0625q0.125 0 0.234375 -0.0625q0.109375 -0.0625 0.15625 -0.15625q0.0625 -0.09375 0.109375 -0.296875l0.015625 -0.078125zm2.7246094 -1.109375l0.515625 0l-0.59375 2.875l-0.5625 0l0.203125 -0.96875q-0.15625 0.109375 -0.28125 0.171875q-0.125 0.046875 -0.296875 0.046875q-0.328125 0 -0.53125 -0.21875q-0.203125 -0.21875 -0.203125 -0.640625q0 -0.34375 0.140625 -0.65625q0.140625 -0.3125 0.375 -0.484375q0.234375 -0.171875 0.515625 -0.171875q0.453125 0 0.65625 0.375l0.0625 -0.328125zm-1.203125 1.25q0 0.21875 0.109375 0.34375q0.109375 0.109375 0.28125 0.109375q0.140625 0 0.265625 -0.09375q0.140625 -0.09375 0.21875 -0.3125q0.078125 -0.234375 0.078125 -0.4375q0 -0.234375 -0.125 -0.359375q-0.109375 -0.125 -0.265625 -0.125q-0.125 0 -0.265625 0.109375q-0.125 0.09375 -0.21875 0.328125q-0.078125 0.21875 -0.078125 0.4375zm2.2558594 -1.25l0.5625 0l-0.265625 1.234375q-0.046875 0.21875 -0.046875 0.265625q0 0.09375 0.0625 0.15625q0.078125 0.0625 0.171875 0.0625q0.078125 0 0.140625 -0.015625q0.078125 -0.03125 0.15625 -0.09375q0.078125 -0.0625 0.140625 -0.125q0.0625 -0.078125 0.109375 -0.203125q0.046875 -0.09375 0.078125 -0.296875l0.21875 -0.984375l0.5625 0l-0.4375 2.078125l-0.53125 0l0.0625 -0.28125q-0.34375 0.328125 -0.75 0.328125q-0.25 0 -0.40625 -0.140625q-0.140625 -0.15625 -0.140625 -0.390625q0 -0.109375 0.0625 -0.4375l0.25 -1.15625zm4.0371094 1.21875l-1.40625 0q-0.015625 0.03125 -0.015625 0.046875q0 0.203125 0.125 0.328125q0.125 0.125 0.28125 0.125q0.28125 0 0.4375 -0.28125l0.5 0.078125q-0.140625 0.3125 -0.390625 0.46875q-0.234375 0.140625 -0.546875 0.140625q-0.421875 0 -0.6875 -0.265625q-0.25 -0.265625 -0.25 -0.703125q0 -0.421875 0.234375 -0.75q0.328125 -0.453125 0.921875 -0.453125q0.375 0 0.59375 0.234375q0.234375 0.234375 0.234375 0.65625q0 0.203125 -0.03125 0.375zm-0.484375 -0.34375q0 -0.046875 0 -0.0625q0 -0.234375 -0.109375 -0.34375q-0.09375 -0.109375 -0.265625 -0.109375q-0.171875 0 -0.3125 0.125q-0.140625 0.125 -0.1875 0.390625l0.875 0zm3.7734375 -0.078125l-1.109375 0l-0.265625 1.28125l-0.59375 0l0.609375 -2.859375l0.578125 0l-0.234375 1.09375l1.109375 0l0.234375 -1.09375l0.59375 0l-0.59375 2.859375l-0.59375 0l0.265625 -1.28125zm1.7011719 -0.203125l-0.546875 -0.046875q0.09375 -0.28125 0.328125 -0.4375q0.234375 -0.15625 0.609375 -0.15625q0.40625 0 0.59375 0.171875q0.203125 0.15625 0.203125 0.390625q0 0.09375 -0.03125 0.203125q-0.015625 0.09375 -0.109375 0.546875q-0.078125 0.375 -0.078125 0.515625q0 0.140625 0.046875 0.296875l-0.546875 0q-0.03125 -0.109375 -0.046875 -0.234375q-0.125 0.140625 -0.28125 0.21875q-0.15625 0.0625 -0.3125 0.0625q-0.265625 0 -0.4375 -0.171875q-0.15625 -0.171875 -0.15625 -0.4375q0 -0.296875 0.171875 -0.46875q0.1875 -0.171875 0.671875 -0.21875q0.390625 -0.03125 0.53125 -0.078125q0.03125 -0.109375 0.03125 -0.1875q0 -0.09375 -0.078125 -0.140625q-0.0625 -0.0625 -0.203125 -0.0625q-0.15625 0 -0.25 0.0625q-0.078125 0.0625 -0.109375 0.171875zm0.53125 0.515625q-0.046875 0.015625 -0.140625 0.03125q-0.421875 0.046875 -0.546875 0.140625q-0.09375 0.078125 -0.09375 0.1875q0 0.109375 0.0625 0.171875q0.078125 0.0625 0.203125 0.0625q0.125 0 0.234375 -0.0625q0.109375 -0.0625 0.15625 -0.15625q0.0625 -0.09375 0.109375 -0.296875l0.015625 -0.078125zm0.8339844 0.390625l0.53125 -0.09375q0.078125 0.171875 0.1875 0.25q0.109375 0.0625 0.296875 0.0625q0.1875 0 0.296875 -0.078125q0.078125 -0.0625 0.078125 -0.140625q0 -0.0625 -0.03125 -0.109375q-0.046875 -0.03125 -0.234375 -0.09375q-0.515625 -0.171875 -0.625 -0.265625q-0.1875 -0.15625 -0.1875 -0.40625q0 -0.25 0.171875 -0.421875q0.265625 -0.25 0.765625 -0.25q0.40625 0 0.609375 0.15625q0.203125 0.140625 0.25 0.390625l-0.515625 0.09375q-0.03125 -0.125 -0.125 -0.171875q-0.125 -0.078125 -0.3125 -0.078125q-0.171875 0 -0.25 0.0625q-0.078125 0.046875 -0.078125 0.125q0 0.078125 0.078125 0.125q0.046875 0.03125 0.3125 0.109375q0.421875 0.125 0.5625 0.234375q0.1875 0.171875 0.1875 0.390625q0 0.296875 -0.25 0.515625q-0.25 0.21875 -0.703125 0.21875q-0.4375 0 -0.6875 -0.15625q-0.25 -0.171875 -0.328125 -0.46875zm2.8652344 0.578125l-0.5625 0l0.59375 -2.859375l0.5625 0l-0.21875 1.015625q0.1875 -0.15625 0.34375 -0.21875q0.171875 -0.0625 0.359375 -0.0625q0.265625 0 0.40625 0.15625q0.140625 0.140625 0.140625 0.375q0 0.125 -0.046875 0.375l-0.25 1.21875l-0.5625 0l0.25 -1.234375q0.046875 -0.203125 0.046875 -0.265625q0 -0.09375 -0.0625 -0.15625q-0.0625 -0.0625 -0.171875 -0.0625q-0.140625 0 -0.28125 0.09375q-0.15625 0.125 -0.25 0.3125q-0.046875 0.109375 -0.125 0.484375l-0.171875 0.828125zm3.0078125 0l0.59375 -2.859375l0.59375 0l-0.5 2.375l1.453125 0l-0.09375 0.484375l-2.046875 0zm4.4433594 -0.859375l-1.40625 0q-0.015625 0.03125 -0.015625 0.046875q0 0.203125 0.125 0.328125q0.125 0.125 0.28125 0.125q0.28125 0 0.4375 -0.28125l0.5 0.078125q-0.140625 0.3125 -0.390625 0.46875q-0.234375 0.140625 -0.546875 0.140625q-0.421875 0 -0.6875 -0.265625q-0.25 -0.265625 -0.25 -0.703125q0 -0.421875 0.234375 -0.75q0.328125 -0.453125 0.921875 -0.453125q0.375 0 0.59375 0.234375q0.234375 0.234375 0.234375 0.65625q0 0.203125 -0.03125 0.375zm-0.484375 -0.34375q0 -0.046875 0 -0.0625q0 -0.234375 -0.109375 -0.34375q-0.09375 -0.109375 -0.265625 -0.109375q-0.171875 0 -0.3125 0.125q-0.140625 0.125 -0.1875 0.390625l0.875 0zm2.5996094 1.203125l-0.53125 0l0.046875 -0.21875q-0.15625 0.140625 -0.3125 0.203125q-0.140625 0.0625 -0.328125 0.0625q-0.3125 0 -0.515625 -0.21875q-0.203125 -0.21875 -0.203125 -0.65625q0 -0.484375 0.28125 -0.890625q0.28125 -0.40625 0.75 -0.40625q0.421875 0 0.625 0.328125l0.21875 -1.0625l0.5625 0l-0.59375 2.859375zm-1.296875 -0.84375q0 0.21875 0.109375 0.34375q0.109375 0.125 0.28125 0.125q0.15625 0 0.28125 -0.09375q0.140625 -0.109375 0.21875 -0.328125q0.078125 -0.21875 0.078125 -0.40625q0 -0.234375 -0.125 -0.359375q-0.125 -0.140625 -0.28125 -0.140625q-0.25 0 -0.40625 0.28125q-0.15625 0.265625 -0.15625 0.578125zm1.7871094 0.953125l0.59375 0.09375q0 0.078125 0.03125 0.125q0.03125 0.046875 0.09375 0.078125q0.0625 0.03125 0.1875 0.03125q0.171875 0 0.28125 -0.0625q0.078125 -0.0625 0.125 -0.171875q0.03125 -0.078125 0.078125 -0.34375l0.03125 -0.09375q-0.296875 0.25 -0.609375 0.25q-0.296875 0 -0.5 -0.21875q-0.1875 -0.21875 -0.1875 -0.640625q0 -0.359375 0.125 -0.65625q0.140625 -0.3125 0.375 -0.46875q0.234375 -0.15625 0.484375 -0.15625q0.21875 0 0.390625 0.109375q0.171875 0.109375 0.265625 0.3125l0.078125 -0.375l0.515625 0l-0.359375 1.734375q-0.078125 0.421875 -0.140625 0.59375q-0.0625 0.171875 -0.140625 0.28125q-0.078125 0.109375 -0.203125 0.171875q-0.109375 0.078125 -0.28125 0.109375q-0.15625 0.03125 -0.34375 0.03125q-0.4375 0 -0.671875 -0.15625q-0.21875 -0.140625 -0.21875 -0.5q0 -0.03125 0 -0.078125zm0.671875 -1.0q0 0.234375 0.09375 0.359375q0.109375 0.125 0.28125 0.125q0.140625 0 0.28125 -0.109375q0.140625 -0.109375 0.203125 -0.3125q0.078125 -0.21875 0.078125 -0.40625q0 -0.21875 -0.125 -0.34375q-0.109375 -0.140625 -0.265625 -0.140625q-0.15625 0 -0.28125 0.125q-0.125 0.109375 -0.203125 0.359375q-0.0625 0.1875 -0.0625 0.34375zm3.8339844 0.03125l-1.40625 0q-0.015625 0.03125 -0.015625 0.046875q0 0.203125 0.125 0.328125q0.125 0.125 0.28125 0.125q0.28125 0 0.4375 -0.28125l0.5 0.078125q-0.140625 0.3125 -0.390625 0.46875q-0.234375 0.140625 -0.546875 0.140625q-0.421875 0 -0.6875 -0.265625q-0.25 -0.265625 -0.25 -0.703125q0 -0.421875 0.234375 -0.75q0.328125 -0.453125 0.921875 -0.453125q0.375 0 0.59375 0.234375q0.234375 0.234375 0.234375 0.65625q0 0.203125 -0.03125 0.375zm-0.484375 -0.34375q0 -0.046875 0 -0.0625q0 -0.234375 -0.109375 -0.34375q-0.09375 -0.109375 -0.265625 -0.109375q-0.171875 0 -0.3125 0.125q-0.140625 0.125 -0.1875 0.390625l0.875 0zm1.0839844 -0.875l0.53125 0l-0.09375 0.40625q0.296875 -0.453125 0.640625 -0.453125q0.125 0 0.25 0.0625l-0.203125 0.453125q-0.078125 -0.015625 -0.171875 -0.015625q-0.140625 0 -0.296875 0.109375q-0.140625 0.109375 -0.234375 0.296875q-0.078125 0.171875 -0.15625 0.5625l-0.140625 0.65625l-0.5625 0l0.4375 -2.078125z" fill-rule="nonzero"/><path fill="#ff9900" d="m13.147004 42.288048l49.03937 0l0 27.874016l-49.03937 0z" fill-rule="evenodd"/><path fill="#ffad33" d="m8.501334 37.64238l58.33071 0l-4.645672 4.645668l-49.03937 0z" fill-rule="evenodd"/><path fill="#cb7a00" d="m8.501334 74.80773l4.64567 -4.645668l49.03937 0l4.645672 4.645668z" fill-rule="evenodd"/><path fill="#ffc166" d="m8.501334 37.64238l4.64567 4.645668l0 27.874016l-4.64567 4.645668z" fill-rule="evenodd"/><path fill="#985b00" d="m66.83205 37.64238l0 37.16535l-4.645672 -4.645668l0 -27.874016z" fill-rule="evenodd"/><path fill="#000000" fill-opacity="0.0" d="m8.501334 37.64238l58.33071 0l0 37.16535l-58.33071 0zm4.64567 4.645668l49.03937 0l0 27.874016l-49.03937 0zm-4.64567 -4.645668l4.64567 4.645668m-4.64567 32.519684l4.64567 -4.645668m53.685043 -32.519684l-4.645672 4.645668m4.645672 32.519684l-4.645672 -4.645668" fill-rule="evenodd"/><path stroke="#000000" stroke-width="1.0" stroke-linejoin="round" stroke-linecap="butt" d="m8.501334 37.64238l58.33071 0l0 37.16535l-58.33071 0zm4.64567 4.645668l49.03937 0l0 27.874016l-49.03937 0zm-4.64567 -4.645668l4.64567 4.645668m-4.64567 32.519684l4.64567 -4.645668m53.685043 -32.519684l-4.645672 4.645668m4.645672 32.519684l-4.645672 -4.645668" fill-rule="evenodd"/><path fill="#000000" fill-opacity="0.0" d="m23.66829 47.633343l28.0 0l0 16.157482l-28.0 0z" fill-rule="evenodd"/><path fill="#000000" d="m31.879227 55.703968q-0.15625 -0.125 -0.359375 -0.1875q-0.203125 -0.0625 -0.4375 -0.0625q-0.390625 0 -0.65625 0.109375q-0.265625 0.109375 -0.265625 0.203125q0 0.078125 0.078125 0.140625q0.125 0.078125 0.578125 0.140625q0.6875 0.109375 1.015625 0.21875q0.328125 0.09375 0.515625 0.328125q0.1875 0.234375 0.1875 0.515625q0 0.578125 -0.625 0.953125q-0.609375 0.375 -1.421875 0.375q-0.34375 0 -0.640625 -0.0625q-0.28125 -0.046875 -0.5 -0.171875q-0.140625 0.109375 -0.28125 0.109375q-0.140625 0 -0.234375 -0.09375q-0.09375 -0.09375 -0.09375 -0.203125q0 -0.078125 0.03125 -0.25l0.0625 -0.265625q0.0625 -0.296875 0.1875 -0.40625q0.140625 -0.125 0.328125 -0.125q0.140625 0 0.21875 0.078125q0.078125 0.078125 0.09375 0.28125q0.15625 0.15625 0.390625 0.234375q0.25 0.078125 0.578125 0.078125q0.59375 0 0.9375 -0.1875q0.140625 -0.09375 0.140625 -0.203125q0 -0.15625 -0.1875 -0.234375q-0.1875 -0.09375 -0.78125 -0.15625q-0.859375 -0.09375 -1.140625 -0.328125q-0.265625 -0.21875 -0.265625 -0.578125q0 -0.3125 0.203125 -0.578125q0.203125 -0.28125 0.59375 -0.46875q0.515625 -0.25 1.109375 -0.25q0.28125 0 0.515625 0.0625q0.25 0.046875 0.46875 0.15625q0.171875 -0.109375 0.28125 -0.109375q0.125 0 0.203125 0.09375q0.09375 0.078125 0.09375 0.203125q0 0.078125 -0.03125 0.234375l-0.046875 0.203125q-0.0625 0.28125 -0.203125 0.40625q-0.125 0.125 -0.3125 0.125q-0.140625 0 -0.234375 -0.09375q-0.09375 -0.09375 -0.09375 -0.234375zm4.8632812 -2.453125l-0.90625 4.265625l0.96875 0q0.265625 0 0.359375 0.078125q0.09375 0.078125 0.09375 0.234375q0 0.234375 -0.234375 0.40625q-0.109375 0.078125 -0.390625 0.078125l-2.71875 0q-0.265625 0 -0.375 -0.078125q-0.09375 -0.09375 -0.09375 -0.234375q0 -0.25 0.234375 -0.40625q0.125 -0.078125 0.40625 -0.078125l0.953125 0l0.734375 -3.46875l-0.640625 0q-0.265625 0 -0.359375 -0.078125q-0.09375 -0.09375 -0.09375 -0.234375q0 -0.25 0.21875 -0.40625q0.125 -0.078125 0.40625 -0.078125l1.4375 0zm6.2382812 0l-0.90625 4.265625l0.140625 0q0.265625 0 0.359375 0.078125q0.09375 0.078125 0.09375 0.234375q0 0.234375 -0.21875 0.390625q-0.125 0.09375 -0.40625 0.09375l-0.9375 0l0.046875 -0.203125q-0.625 0.328125 -1.265625 0.328125q-0.78125 0 -1.21875 -0.390625q-0.4375 -0.40625 -0.4375 -1.015625q0 -0.546875 0.3125 -1.109375q0.3125 -0.5625 0.96875 -0.9375q0.546875 -0.328125 1.171875 -0.328125q0.609375 0 1.125 0.390625l0.203125 -1.0l-0.140625 0q-0.265625 0 -0.359375 -0.078125q-0.09375 -0.09375 -0.09375 -0.234375q0 -0.25 0.234375 -0.40625q0.125 -0.078125 0.390625 -0.078125l0.9375 0zm-2.9375 4.390625q0.65625 0 1.046875 -0.359375q0.40625 -0.375 0.40625 -0.90625q0 -0.390625 -0.28125 -0.65625q-0.265625 -0.265625 -0.703125 -0.265625q-0.578125 0 -1.03125 0.4375q-0.4375 0.4375 -0.4375 0.96875q0 0.34375 0.25 0.5625q0.25 0.21875 0.75 0.21875zm6.3164062 -2.71875l0.140625 -0.15625l0.9375 0q0.28125 0 0.375 0.09375q0.09375 0.078125 0.09375 0.21875q0 0.234375 -0.21875 0.390625q-0.125 0.09375 -0.40625 0.09375l-0.140625 0l-0.625 2.921875q-0.09375 0.40625 -0.328125 0.71875q-0.234375 0.328125 -0.65625 0.546875q-0.421875 0.234375 -0.890625 0.234375l-0.90625 0q-0.265625 0 -0.359375 -0.078125q-0.09375 -0.078125 -0.09375 -0.234375q0 -0.25 0.234375 -0.40625q0.125 -0.078125 0.390625 -0.078125l0.890625 0q0.359375 0 0.609375 -0.203125q0.25 -0.1875 0.3125 -0.5l0.078125 -0.390625q-0.296875 0.171875 -0.59375 0.25q-0.296875 0.09375 -0.578125 0.09375q-0.703125 0 -1.140625 -0.421875q-0.421875 -0.421875 -0.421875 -1.046875q0 -0.5625 0.3125 -1.109375q0.3125 -0.546875 0.875 -0.875q0.5625 -0.34375 1.1875 -0.34375q0.25 0 0.453125 0.0625q0.203125 0.0625 0.46875 0.21875zm-1.578125 2.703125q0.53125 0 0.953125 -0.40625q0.421875 -0.40625 0.421875 -0.90625q0 -0.359375 -0.265625 -0.609375q-0.25 -0.25 -0.625 -0.25q-0.546875 0 -0.96875 0.40625q-0.40625 0.40625 -0.40625 0.890625q0 0.375 0.25 0.625q0.25 0.25 0.640625 0.25z" fill-rule="nonzero"/><path fill="#000000" fill-opacity="0.0" d="m105.34445 34.16015l-31.842522 14.330708" fill-rule="evenodd"/><path stroke="#000000" stroke-width="2.0" stroke-linejoin="round" stroke-linecap="butt" d="m105.344444 34.16015l-20.899658 9.40588" fill-rule="evenodd"/><path stroke="#000000" stroke-width="2.0" stroke-linecap="butt" d="m83.089035 40.553585l-6.920868 6.737335l9.63237 -0.7124481z" fill-rule="evenodd"/><path fill="#000000" fill-opacity="0.0" d="m75.00792 68.48649l32.0 12.0" fill-rule="evenodd"/><path stroke="#000000" stroke-width="2.0" stroke-linejoin="round" stroke-linecap="butt" d="m75.00791 68.486496l20.764046 7.7865143" fill-rule="evenodd"/><path stroke="#000000" stroke-width="2.0" stroke-linecap="butt" d="m94.61204 79.36614l9.658234 0.09373474l-7.338379 -6.279999z" fill-rule="evenodd"/><path fill="#000000" fill-opacity="0.0" d="m111.592705 64.59227l64.34646 0l0 42.04725l-64.34646 0z" fill-rule="evenodd"/><path stroke="#000000" stroke-width="2.0" stroke-linejoin="round" stroke-linecap="butt" d="m111.592705 64.59227l64.34646 0l0 42.04725l-64.34646 0z" fill-rule="evenodd"/><path fill="#efefef" d="m22.752182 145.22153l0 -29.322838l23.464474 0l4.6930084 4.693001l0 24.629837z" fill-rule="evenodd"/><path fill="#bfbfbf" d="m50.909664 120.59169l-3.754406 -0.93859863l-0.93860245 -3.7544022z" fill-rule="evenodd"/><path fill="#000000" fill-opacity="0.0" d="m50.909664 120.59169l-3.754406 -0.93859863l-0.93860245 -3.7544022l4.6930084 4.693001l0 24.629837l-28.157482 0l0 -29.322838l23.464474 0" fill-rule="evenodd"/><path stroke="#000000" stroke-width="1.0" stroke-linejoin="round" stroke-linecap="butt" d="m50.909664 120.59169l-3.754406 -0.93859863l-0.93860245 -3.7544022l4.6930084 4.693001l0 24.629837l-28.157482 0l0 -29.322838l23.464474 0" fill-rule="evenodd"/><path fill="#000000" fill-opacity="0.0" d="m22.836182 124.63254l28.0 0l0 11.307083l-28.0 0z" fill-rule="evenodd"/><path fill="#000000" d="m32.738525 131.47253l0.078125 -0.40625l0.40625 0l-0.09375 0.40625l-0.390625 0zm1.0019531 0l0.4375 -2.078125l0.359375 0l-0.078125 0.34375q0.203125 -0.21875 0.359375 -0.296875q0.15625 -0.09375 0.328125 -0.09375q0.203125 0 0.328125 0.109375q0.125 0.09375 0.171875 0.28125q0.15625 -0.1875 0.328125 -0.28125q0.171875 -0.109375 0.375 -0.109375q0.25 0 0.375 0.125q0.140625 0.125 0.140625 0.34375q0 0.09375 -0.046875 0.3125l-0.28125 1.34375l-0.34375 0l0.28125 -1.375q0.03125 -0.171875 0.03125 -0.234375q0 -0.109375 -0.0625 -0.15625q-0.0625 -0.0625 -0.171875 -0.0625q-0.171875 0 -0.34375 0.09375q-0.15625 0.09375 -0.25 0.25q-0.078125 0.15625 -0.15625 0.484375l-0.203125 1.0l-0.359375 0l0.296875 -1.40625q0.03125 -0.140625 0.03125 -0.203125q0 -0.09375 -0.0625 -0.15625q-0.0625 -0.0625 -0.171875 -0.0625q-0.140625 0 -0.3125 0.09375q-0.15625 0.09375 -0.265625 0.265625q-0.109375 0.171875 -0.171875 0.484375l-0.203125 0.984375l-0.359375 0zm3.3476562 0l0.421875 -2.078125l0.3125 0l-0.078125 0.421875q0.15625 -0.234375 0.3125 -0.34375q0.15625 -0.125 0.3125 -0.125q0.109375 0 0.25 0.078125l-0.140625 0.328125q-0.09375 -0.0625 -0.203125 -0.0625q-0.1875 0 -0.390625 0.203125q-0.1875 0.203125 -0.296875 0.75l-0.171875 0.828125l-0.328125 0zm1.3632812 -0.703125l0.34375 -0.03125q0 0.15625 0.046875 0.265625q0.046875 0.109375 0.171875 0.171875q0.125 0.0625 0.296875 0.0625q0.234375 0 0.34375 -0.09375q0.125 -0.09375 0.125 -0.21875q0 -0.09375 -0.0625 -0.171875q-0.078125 -0.078125 -0.359375 -0.1875q-0.28125 -0.125 -0.359375 -0.1875q-0.125 -0.078125 -0.203125 -0.1875q-0.0625 -0.109375 -0.0625 -0.25q0 -0.234375 0.1875 -0.40625q0.203125 -0.1875 0.5625 -0.1875q0.390625 0 0.59375 0.1875q0.203125 0.171875 0.203125 0.46875l-0.34375 0.03125q0 -0.1875 -0.125 -0.296875q-0.125 -0.109375 -0.359375 -0.109375q-0.1875 0 -0.296875 0.078125q-0.09375 0.078125 -0.09375 0.1875q0 0.09375 0.09375 0.171875q0.0625 0.046875 0.296875 0.15625q0.40625 0.171875 0.515625 0.265625q0.171875 0.171875 0.171875 0.40625q0 0.15625 -0.09375 0.3125q-0.09375 0.140625 -0.296875 0.234375q-0.1875 0.078125 -0.453125 0.078125q-0.359375 0 -0.609375 -0.171875q-0.25 -0.1875 -0.234375 -0.578125zm1.9375 0.703125l0.59375 -2.859375l0.359375 0l-0.609375 2.859375l-0.34375 0z" fill-rule="nonzero"/><path fill="#000000" fill-opacity="0.0" d="m23.587927 144.64174l28.15748 0l0 11.307083l-28.15748 0z" fill-rule="evenodd"/><path fill="#000000" d="m28.240885 149.40361l0.53125 0l-0.0625 0.25q0.3125 -0.296875 0.65625 -0.296875q0.234375 0 0.359375 0.109375q0.125 0.09375 0.15625 0.265625q0.109375 -0.15625 0.3125 -0.265625q0.203125 -0.109375 0.421875 -0.109375q0.25 0 0.375 0.140625q0.140625 0.125 0.140625 0.34375q0 0.109375 -0.046875 0.375l-0.265625 1.265625l-0.5625 0l0.265625 -1.265625q0.046875 -0.234375 0.046875 -0.265625q0 -0.09375 -0.046875 -0.140625q-0.046875 -0.046875 -0.15625 -0.046875q-0.203125 0 -0.375 0.21875q-0.125 0.15625 -0.203125 0.5625l-0.203125 0.9375l-0.546875 0l0.25 -1.25q0.046875 -0.21875 0.046875 -0.28125q0 -0.09375 -0.0625 -0.140625q-0.046875 -0.046875 -0.140625 -0.046875q-0.09375 0 -0.203125 0.0625q-0.09375 0.046875 -0.171875 0.140625q-0.0625 0.09375 -0.109375 0.25q-0.03125 0.0625 -0.078125 0.3125l-0.203125 0.953125l-0.5625 0l0.4375 -2.078125zm3.2285156 1.21875q0 -0.578125 0.3125 -0.921875q0.3281269 -0.34375 0.8593769 -0.34375q0.453125 0 0.703125 0.25q0.265625 0.25 0.265625 0.6875q0 0.5 -0.328125 0.875q-0.3125 0.359375 -0.84375 0.359375q-0.296875 0 -0.5312519 -0.109375q-0.21875 -0.125 -0.328125 -0.328125q-0.109375 -0.21875 -0.109375 -0.46875zm1.5937519 -0.40625q0 -0.203125 -0.125 -0.3125q-0.109375 -0.125 -0.296875 -0.125q-0.171875 0 -0.3125 0.109375q-0.140625 0.109375 -0.21875 0.328125q-0.078125 0.21875 -0.078125 0.390625q0 0.234375 0.109375 0.359375q0.125 0.125 0.3125 0.125q0.234375 0 0.390625 -0.1875q0.21875 -0.28125 0.21875 -0.6875zm1.1621094 -0.8125l0.53125 0l-0.09375 0.40625q0.296875 -0.453125 0.640625 -0.453125q0.125 0 0.25 0.0625l-0.203125 0.453125q-0.078125 -0.015625 -0.171875 -0.015625q-0.140625 0 -0.296875 0.109375q-0.140625 0.109375 -0.234375 0.296875q-0.078125 0.171875 -0.15625 0.5625l-0.140625 0.65625l-0.5625 0l0.4375 -2.078125zm1.0878906 1.5l0.53125 -0.09375q0.078125 0.171875 0.1875 0.25q0.109375 0.0625 0.296875 0.0625q0.1875 0 0.296875 -0.078125q0.078125 -0.0625 0.078125 -0.140625q0 -0.0625 -0.03125 -0.109375q-0.046875 -0.03125 -0.234375 -0.09375q-0.515625 -0.171875 -0.625 -0.265625q-0.1875 -0.15625 -0.1875 -0.40625q0 -0.25 0.171875 -0.421875q0.265625 -0.25 0.765625 -0.25q0.40625 0 0.609375 0.15625q0.203125 0.140625 0.25 0.390625l-0.515625 0.09375q-0.03125 -0.125 -0.125 -0.171875q-0.125 -0.078125 -0.3125 -0.078125q-0.171875 0 -0.25 0.0625q-0.078125 0.046875 -0.078125 0.125q0 0.078125 0.078125 0.125q0.046875 0.03125 0.3125 0.109375q0.421875 0.125 0.5625 0.234375q0.1875 0.171875 0.1875 0.390625q0 0.296875 -0.25 0.515625q-0.25 0.21875 -0.703125 0.21875q-0.4375 0 -0.6875 -0.15625q-0.25 -0.171875 -0.328125 -0.46875zm4.3183556 -0.28125l-1.4062462 0q-0.015625 0.03125 -0.015625 0.046875q0 0.203125 0.125 0.328125q0.125 0.125 0.28125 0.125q0.28125 0 0.4375 -0.28125l0.5 0.078125q-0.140625 0.3125 -0.390625 0.46875q-0.234375 0.140625 -0.546875 0.140625q-0.421875 0 -0.6875 -0.265625q-0.25 -0.265625 -0.25 -0.703125q0 -0.421875 0.234375 -0.75q0.328125 -0.453125 0.921875 -0.453125q0.375 0 0.59375 0.234375q0.23437119 0.234375 0.23437119 0.65625q0 0.203125 -0.03125 0.375zm-0.4843712 -0.34375q0 -0.046875 0 -0.0625q0 -0.234375 -0.109375 -0.34375q-0.09375 -0.109375 -0.265625 -0.109375q-0.171875 0 -0.3125 0.125q-0.140625 0.125 -0.1875 0.390625l0.875 0zm0.67773056 1.203125l0.59375 -2.859375l0.5625 0l-0.59375 2.859375l-0.5625 0zm3.6757812 -2.078125l-0.09375 0.40625l-0.390625 0l-0.34375 1.671875l-0.5625 0l0.34375 -1.671875l-0.3125 0l0.09375 -0.40625l0.3125 0l0.03125 -0.203125q0.0625 -0.265625 0.109375 -0.359375q0.0625 -0.125 0.1875 -0.1875q0.140625 -0.078125 0.359375 -0.078125q0.25 0 0.546875 0.09375l-0.109375 0.390625q-0.203125 -0.0625 -0.328125 -0.0625q-0.09375 0 -0.140625 0.0625q-0.03125 0.03125 -0.078125 0.203125l-0.03125 0.140625l0.40625 0zm0.48828125 -0.78125l0.546875 0l-0.09375 0.5l-0.5625 0l0.109375 -0.5zm-0.171875 0.78125l0.5625 0l-0.4375 2.078125l-0.5625 0l0.4375 -2.078125zm0.6738281 2.078125l0.59375 -2.859375l0.5625 0l-0.59375 2.859375l-0.5625 0zm3.1425781 -0.859375l-1.40625 0q-0.015625 0.03125 -0.015625 0.046875q0 0.203125 0.125 0.328125q0.125 0.125 0.28125 0.125q0.28125 0 0.4375 -0.28125l0.5 0.078125q-0.140625 0.3125 -0.390625 0.46875q-0.234375 0.140625 -0.546875 0.140625q-0.421875 0 -0.6875 -0.265625q-0.25 -0.265625 -0.25 -0.703125q0 -0.421875 0.234375 -0.75q0.328125 -0.453125 0.921875 -0.453125q0.375 0 0.59375 0.234375q0.234375 0.234375 0.234375 0.65625q0 0.203125 -0.03125 0.375zm-0.484375 -0.34375q0 -0.046875 0 -0.0625q0 -0.234375 -0.109375 -0.34375q-0.09375 -0.109375 -0.265625 -0.109375q-0.171875 0 -0.3125 0.125q-0.140625 0.125 -0.1875 0.390625l0.875 0z" fill-rule="nonzero"/><path fill="#000000" fill-opacity="0.0" d="m37.670643 81.81711l0 25.669296" fill-rule="evenodd"/><path stroke="#000000" stroke-width="2.0" stroke-linejoin="round" stroke-linecap="butt" d="m37.670643 81.81711l0 13.669296" fill-rule="evenodd"/><path stroke="#000000" stroke-width="2.0" stroke-linecap="butt" d="m34.367176 95.486404l3.3034668 9.076195l3.303463 -9.076195z" fill-rule="evenodd"/><path fill="#6d9eeb" d="m13.147004 188.92485l49.03937 0l0 27.874023l-49.03937 0z" fill-rule="evenodd"/><path fill="#8ab1ef" d="m8.501334 184.27919l58.33071 0l-4.645672 4.6456604l-49.03937 0z" fill-rule="evenodd"/><path fill="#577ebb" d="m8.501334 221.44453l4.64567 -4.6456604l49.03937 0l4.645672 4.6456604z" fill-rule="evenodd"/><path fill="#a7c4f3" d="m8.501334 184.27919l4.64567 4.6456604l0 27.874023l-4.64567 4.6456604z" fill-rule="evenodd"/><path fill="#415e8c" d="m66.83205 184.27919l0 37.165344l-4.645672 -4.6456604l0 -27.874023z" fill-rule="evenodd"/><path fill="#000000" fill-opacity="0.0" d="m8.501334 184.27919l58.33071 0l0 37.165344l-58.33071 0zm4.64567 4.6456604l49.03937 0l0 27.874023l-49.03937 0zm-4.64567 -4.6456604l4.64567 4.6456604m-4.64567 32.519684l4.64567 -4.6456604m53.685043 -32.519684l-4.645672 4.6456604m4.645672 32.519684l-4.645672 -4.6456604" fill-rule="evenodd"/><path stroke="#000000" stroke-width="1.0" stroke-linejoin="round" stroke-linecap="butt" d="m8.501334 184.27919l58.33071 0l0 37.165344l-58.33071 0zm4.64567 4.6456604l49.03937 0l0 27.874023l-49.03937 0zm-4.64567 -4.6456604l4.64567 4.6456604m-4.64567 32.519684l4.64567 -4.6456604m53.685043 -32.519684l-4.645672 4.6456604m4.645672 32.519684l-4.645672 -4.6456604" fill-rule="evenodd"/><path fill="#000000" fill-opacity="0.0" d="m23.66829 194.27016l28.0 0l0 16.15747l-28.0 0z" fill-rule="evenodd"/><path fill="#000000" d="m29.926102 201.40327l-0.03125 0.234375q0.25 -0.1875 0.421875 -0.265625q0.1875 -0.078125 0.375 -0.078125q0.390625 0 0.640625 0.34375q0.25 -0.171875 0.484375 -0.25q0.234375 -0.09375 0.453125 -0.09375q0.40625 0 0.640625 0.234375q0.25 0.21875 0.25 0.59375q0 0.109375 -0.03125 0.234375l-0.375 1.796875q0.21875 0 0.3125 0.078125q0.09375 0.078125 0.09375 0.234375q0 0.234375 -0.21875 0.40625q-0.125 0.078125 -0.40625 0.078125l-0.765625 0l0.546875 -2.53125q0.015625 -0.078125 0.015625 -0.15625q0 -0.078125 -0.0625 -0.125q-0.046875 -0.046875 -0.15625 -0.046875q-0.125 0 -0.25 0.078125q-0.171875 0.09375 -0.4375 0.359375l-0.34375 1.625q0.234375 0 0.328125 0.078125q0.09375 0.078125 0.09375 0.234375q0 0.234375 -0.234375 0.40625q-0.125 0.078125 -0.40625 0.078125l-0.75 0l0.53125 -2.53125q0.015625 -0.078125 0.015625 -0.140625q0 -0.078125 -0.0625 -0.125q-0.046875 -0.0625 -0.15625 -0.0625q-0.140625 0 -0.265625 0.078125q-0.1875 0.09375 -0.4375 0.359375l-0.34375 1.625q0.234375 0 0.328125 0.078125q0.09375 0.078125 0.09375 0.234375q0 0.234375 -0.234375 0.40625q-0.109375 0.078125 -0.390625 0.078125l-0.71875 0q-0.265625 0 -0.375 -0.078125q-0.09375 -0.09375 -0.09375 -0.234375q0 -0.203125 0.15625 -0.34375q0.171875 -0.15625 0.4375 -0.140625l0.421875 -1.953125q-0.234375 0 -0.328125 -0.078125q-0.09375 -0.09375 -0.09375 -0.234375q0 -0.234375 0.21875 -0.390625q0.125 -0.09375 0.40625 -0.09375l0.703125 0zm5.9414062 0l-0.109375 0.5q0.578125 -0.375 0.890625 -0.484375q0.328125 -0.125 0.578125 -0.125q0.34375 0 0.59375 0.21875q0.265625 0.203125 0.265625 0.390625q0 0.1875 -0.15625 0.34375q-0.140625 0.140625 -0.34375 0.140625q-0.140625 0 -0.28125 -0.140625q-0.125 -0.15625 -0.25 -0.15625q-0.15625 0 -0.484375 0.171875q-0.3125 0.15625 -1.03125 0.671875l-0.265625 1.21875l1.140625 0q0.265625 0 0.359375 0.078125q0.09375 0.078125 0.09375 0.234375q0 0.234375 -0.21875 0.40625q-0.125 0.078125 -0.40625 0.078125l-2.421875 0q-0.265625 0 -0.359375 -0.078125q-0.09375 -0.09375 -0.09375 -0.234375q0 -0.25 0.234375 -0.40625q0.125 -0.078125 0.390625 -0.078125l0.484375 0l0.40625 -1.953125l-0.28125 0q-0.265625 0 -0.375 -0.078125q-0.09375 -0.09375 -0.09375 -0.234375q0 -0.234375 0.234375 -0.390625q0.125 -0.09375 0.40625 -0.09375l1.09375 0zm5.6132812 0.9375q-0.15625 -0.125 -0.359375 -0.1875q-0.203125 -0.0625 -0.4375 -0.0625q-0.390625 0 -0.65625 0.109375q-0.265625 0.109375 -0.265625 0.203125q0 0.078125 0.078125 0.140625q0.125 0.078125 0.578125 0.140625q0.6875 0.109375 1.015625 0.21875q0.328125 0.09375 0.515625 0.328125q0.1875 0.234375 0.1875 0.515625q0 0.578125 -0.625 0.953125q-0.609375 0.375 -1.421875 0.375q-0.34375 0 -0.640625 -0.0625q-0.28125 -0.046875 -0.5 -0.171875q-0.140625 0.109375 -0.28125 0.109375q-0.140625 0 -0.234375 -0.09375q-0.09375 -0.09375 -0.09375 -0.203125q0 -0.078125 0.03125 -0.25l0.0625 -0.265625q0.0625 -0.296875 0.1875 -0.40625q0.140625 -0.125 0.328125 -0.125q0.140625 0 0.21875 0.078125q0.078125 0.078125 0.09375 0.28125q0.15625 0.15625 0.390625 0.234375q0.25 0.078125 0.578125 0.078125q0.59375 0 0.9375 -0.1875q0.140625 -0.09375 0.140625 -0.203125q0 -0.15625 -0.1875 -0.234375q-0.1875 -0.09375 -0.78125 -0.15625q-0.859375 -0.09375 -1.140625 -0.328125q-0.265625 -0.21875 -0.265625 -0.578125q0 -0.3125 0.203125 -0.578125q0.203125 -0.28125 0.59375 -0.46875q0.515625 -0.25 1.109375 -0.25q0.28125 0 0.515625 0.0625q0.25 0.046875 0.46875 0.15625q0.171875 -0.109375 0.28125 -0.109375q0.125 0 0.203125 0.09375q0.09375 0.078125 0.09375 0.203125q0 0.078125 -0.03125 0.234375l-0.046875 0.203125q-0.0625 0.28125 -0.203125 0.40625q-0.125 0.125 -0.3125 0.125q-0.140625 0 -0.234375 -0.09375q-0.09375 -0.09375 -0.09375 -0.234375zm4.8632812 -2.453125l-0.90625 4.265625l0.96875 0q0.265625 0 0.359375 0.078125q0.09375 0.078125 0.09375 0.234375q0 0.234375 -0.234375 0.40625q-0.109375 0.078125 -0.390625 0.078125l-2.71875 0q-0.265625 0 -0.375 -0.078125q-0.09375 -0.09375 -0.09375 -0.234375q0 -0.25 0.234375 -0.40625q0.125 -0.078125 0.40625 -0.078125l0.953125 0l0.734375 -3.46875l-0.640625 0q-0.265625 0 -0.359375 -0.078125q-0.09375 -0.09375 -0.09375 -0.234375q0 -0.25 0.21875 -0.40625q0.125 -0.078125 0.40625 -0.078125l1.4375 0z" fill-rule="nonzero"/><path fill="#000000" fill-opacity="0.0" d="m37.670643 153.80244l0 25.669296" fill-rule="evenodd"/><path stroke="#000000" stroke-width="2.0" stroke-linejoin="round" stroke-linecap="butt" d="m37.670643 153.80246l0 13.669281" fill-rule="evenodd"/><path stroke="#000000" stroke-width="2.0" stroke-linecap="butt" d="m34.367176 167.47174l3.3034668 9.076202l3.303463 -9.076202z" fill-rule="evenodd"/><path fill="#efefef" d="m22.752182 283.85995l0 -29.32283l23.464474 0l4.6930084 4.6930084l0 24.629822z" fill-rule="evenodd"/><path fill="#bfbfbf" d="m50.909664 259.23013l-3.754406 -0.93859863l-0.93860245 -3.7544098z" fill-rule="evenodd"/><path fill="#000000" fill-opacity="0.0" d="m50.909664 259.23013l-3.754406 -0.93859863l-0.93860245 -3.7544098l4.6930084 4.6930084l0 24.629822l-28.157482 0l0 -29.32283l23.464474 0" fill-rule="evenodd"/><path stroke="#000000" stroke-width="1.0" stroke-linejoin="round" stroke-linecap="butt" d="m50.909664 259.23013l-3.754406 -0.93859863l-0.93860245 -3.7544098l4.6930084 4.6930084l0 24.629822l-28.157482 0l0 -29.32283l23.464474 0" fill-rule="evenodd"/><path fill="#000000" fill-opacity="0.0" d="m22.836182 263.27097l28.0 0l0 11.307098l-28.0 0z" fill-rule="evenodd"/><path fill="#000000" d="m32.738525 270.11096l0.078125 -0.40625l0.40625 0l-0.09375 0.40625l-0.390625 0zm1.0019531 0l0.4375 -2.078125l0.359375 0l-0.078125 0.34375q0.203125 -0.21875 0.359375 -0.296875q0.15625 -0.09375 0.328125 -0.09375q0.203125 0 0.328125 0.109375q0.125 0.09375 0.171875 0.28125q0.15625 -0.1875 0.328125 -0.28125q0.171875 -0.109375 0.375 -0.109375q0.25 0 0.375 0.125q0.140625 0.125 0.140625 0.34375q0 0.09375 -0.046875 0.3125l-0.28125 1.34375l-0.34375 0l0.28125 -1.375q0.03125 -0.171875 0.03125 -0.234375q0 -0.109375 -0.0625 -0.15625q-0.0625 -0.0625 -0.171875 -0.0625q-0.171875 0 -0.34375 0.09375q-0.15625 0.09375 -0.25 0.25q-0.078125 0.15625 -0.15625 0.484375l-0.203125 1.0l-0.359375 0l0.296875 -1.40625q0.03125 -0.140625 0.03125 -0.203125q0 -0.09375 -0.0625 -0.15625q-0.0625 -0.0625 -0.171875 -0.0625q-0.140625 0 -0.3125 0.09375q-0.15625 0.09375 -0.265625 0.265625q-0.109375 0.171875 -0.171875 0.484375l-0.203125 0.984375l-0.359375 0zm3.3476562 0l0.421875 -2.078125l0.3125 0l-0.078125 0.421875q0.15625 -0.234375 0.3125 -0.34375q0.15625 -0.125 0.3125 -0.125q0.109375 0 0.25 0.078125l-0.140625 0.328125q-0.09375 -0.0625 -0.203125 -0.0625q-0.1875 0 -0.390625 0.203125q-0.1875 0.203125 -0.296875 0.75l-0.171875 0.828125l-0.328125 0zm1.3632812 -0.703125l0.34375 -0.03125q0 0.15625 0.046875 0.265625q0.046875 0.109375 0.171875 0.171875q0.125 0.0625 0.296875 0.0625q0.234375 0 0.34375 -0.09375q0.125 -0.09375 0.125 -0.21875q0 -0.09375 -0.0625 -0.171875q-0.078125 -0.078125 -0.359375 -0.1875q-0.28125 -0.125 -0.359375 -0.1875q-0.125 -0.078125 -0.203125 -0.1875q-0.0625 -0.109375 -0.0625 -0.25q0 -0.234375 0.1875 -0.40625q0.203125 -0.1875 0.5625 -0.1875q0.390625 0 0.59375 0.1875q0.203125 0.171875 0.203125 0.46875l-0.34375 0.03125q0 -0.1875 -0.125 -0.296875q-0.125 -0.109375 -0.359375 -0.109375q-0.1875 0 -0.296875 0.078125q-0.09375 0.078125 -0.09375 0.1875q0 0.09375 0.09375 0.171875q0.0625 0.046875 0.296875 0.15625q0.40625 0.171875 0.515625 0.265625q0.171875 0.171875 0.171875 0.40625q0 0.15625 -0.09375 0.3125q-0.09375 0.140625 -0.296875 0.234375q-0.1875 0.078125 -0.453125 0.078125q-0.359375 0 -0.609375 -0.171875q-0.25 -0.1875 -0.234375 -0.578125zm1.9375 0.703125l0.59375 -2.859375l0.359375 0l-0.609375 2.859375l-0.34375 0z" fill-rule="nonzero"/><path fill="#000000" fill-opacity="0.0" d="m37.670643 251.45186l0 -25.669296" fill-rule="evenodd"/><path stroke="#000000" stroke-width="2.0" stroke-linejoin="round" stroke-linecap="butt" d="m37.670643 251.45186l0 -13.669296" fill-rule="evenodd"/><path stroke="#000000" stroke-width="2.0" stroke-linecap="butt" d="m40.974106 237.78256l-3.303463 -9.076202l-3.3034668 9.076202z" fill-rule="evenodd"/><path fill="#efefef" d="m113.3453 217.52176l0 -29.32283l23.46447 0l4.6930084 4.6930084l0 24.629822z" fill-rule="evenodd"/><path fill="#bfbfbf" d="m141.50278 192.89194l-3.7544098 -0.9386139l-0.93859863 -3.7543945z" fill-rule="evenodd"/><path fill="#000000" fill-opacity="0.0" d="m141.50278 192.89194l-3.7544098 -0.9386139l-0.93859863 -3.7543945l4.6930084 4.6930084l0 24.629822l-28.157478 0l0 -29.32283l23.46447 0" fill-rule="evenodd"/><path stroke="#000000" stroke-width="1.0" stroke-linejoin="round" stroke-linecap="butt" d="m141.50278 192.89194l-3.7544098 -0.9386139l-0.93859863 -3.7543945l4.6930084 4.6930084l0 24.629822l-28.157478 0l0 -29.32283l23.46447 0" fill-rule="evenodd"/><path fill="#000000" fill-opacity="0.0" d="m113.42929 196.93277l28.0 0l0 11.307098l-28.0 0z" fill-rule="evenodd"/><path fill="#000000" d="m123.331635 203.77278l0.078125 -0.40625l0.40625 0l-0.09375 0.40625l-0.390625 0zm1.0019531 0l0.4375 -2.078125l0.359375 0l-0.078125 0.34375q0.203125 -0.21875 0.359375 -0.296875q0.15625 -0.09375 0.328125 -0.09375q0.203125 0 0.328125 0.109375q0.125 0.09375 0.171875 0.28125q0.15625 -0.1875 0.328125 -0.28125q0.171875 -0.109375 0.375 -0.109375q0.25 0 0.375 0.125q0.140625 0.125 0.140625 0.34375q0 0.09375 -0.046875 0.3125l-0.28125 1.34375l-0.34375 0l0.28125 -1.375q0.03125 -0.171875 0.03125 -0.234375q0 -0.109375 -0.0625 -0.15625q-0.0625 -0.0625 -0.171875 -0.0625q-0.171875 0 -0.34375 0.09375q-0.15625 0.09375 -0.25 0.25q-0.078125 0.15625 -0.15625 0.484375l-0.203125 1.0l-0.359375 0l0.296875 -1.40625q0.03125 -0.140625 0.03125 -0.203125q0 -0.09375 -0.0625 -0.15625q-0.0625 -0.0625 -0.171875 -0.0625q-0.140625 0 -0.3125 0.09375q-0.15625 0.09375 -0.265625 0.265625q-0.109375 0.171875 -0.171875 0.484375l-0.203125 0.984375l-0.359375 0zm3.3476562 0l0.421875 -2.078125l0.3125 0l-0.078125 0.421875q0.15625 -0.234375 0.3125 -0.34375q0.15625 -0.125 0.3125 -0.125q0.109375 0 0.25 0.078125l-0.140625 0.328125q-0.09375 -0.0625 -0.203125 -0.0625q-0.1875 0 -0.390625 0.203125q-0.1875 0.203125 -0.296875 0.75l-0.171875 0.828125l-0.328125 0zm1.3632812 -0.703125l0.34375 -0.03125q0 0.15625 0.046875 0.265625q0.046875 0.109375 0.171875 0.171875q0.125 0.0625 0.296875 0.0625q0.234375 0 0.34375 -0.09375q0.125 -0.09375 0.125 -0.21875q0 -0.09375 -0.0625 -0.171875q-0.078125 -0.078125 -0.359375 -0.1875q-0.28125 -0.125 -0.359375 -0.1875q-0.125 -0.078125 -0.203125 -0.1875q-0.0625 -0.109375 -0.0625 -0.25q0 -0.234375 0.1875 -0.40625q0.203125 -0.1875 0.5625 -0.1875q0.390625 0 0.59375 0.1875q0.203125 0.171875 0.203125 0.46875l-0.34375 0.03125q0 -0.1875 -0.125 -0.296875q-0.125 -0.109375 -0.359375 -0.109375q-0.1875 0 -0.296875 0.078125q-0.09375 0.078125 -0.09375 0.1875q0 0.09375 0.09375 0.171875q0.0625 0.046875 0.296875 0.15625q0.40625 0.171875 0.515625 0.265625q0.171875 0.171875 0.171875 0.40625q0 0.15625 -0.09375 0.3125q-0.09375 0.140625 -0.296875 0.234375q-0.1875 0.078125 -0.453125 0.078125q-0.359375 0 -0.609375 -0.171875q-0.25 -0.1875 -0.234375 -0.578125zm1.9375 0.703125l0.59375 -2.859375l0.359375 0l-0.609375 2.859375l-0.34375 0z" fill-rule="nonzero"/><path fill="#000000" fill-opacity="0.0" d="m78.17361 203.96022l25.669289 0" fill-rule="evenodd"/><path stroke="#000000" stroke-width="2.0" stroke-linejoin="round" stroke-linecap="butt" d="m78.1736 203.96022l13.669296 0" fill-rule="evenodd"/><path stroke="#000000" stroke-width="2.0" stroke-linecap="butt" d="m91.8429 207.26369l9.076195 -3.3034668l-9.076195 -3.3034668z" fill-rule="evenodd"/><path fill="#000000" fill-opacity="0.0" d="m57.75145 189.8337l64.34646 0l0 11.307083l-64.34646 0z" fill-rule="evenodd"/><path fill="#000000" d="m76.50182 194.59557l0.5 0l0 0.28125q0.28125 -0.328125 0.65625 -0.328125q0.1875 0 0.328125 0.09375q0.15625 0.078125 0.25 0.234375q0.140625 -0.15625 0.296875 -0.234375q0.15625 -0.09375 0.34375 -0.09375q0.21875 0 0.375 0.09375q0.15625 0.09375 0.234375 0.28125q0.0625 0.125 0.0625 0.421875l0 1.328125l-0.546875 0l0 -1.1875q0 -0.3125 -0.0625 -0.390625q-0.078125 -0.125 -0.234375 -0.125q-0.109375 0 -0.21875 0.078125q-0.09375 0.0625 -0.140625 0.203125q-0.046875 0.125 -0.046875 0.421875l0 1.0l-0.546875 0l0 -1.140625q0 -0.296875 -0.03125 -0.375q-0.03125 -0.09375 -0.09375 -0.140625q-0.0625 -0.046875 -0.15625 -0.046875q-0.125 0 -0.234375 0.078125q-0.09375 0.0625 -0.140625 0.1875q-0.046875 0.125 -0.046875 0.421875l0 1.015625l-0.546875 0l0 -2.078125zm4.7910156 1.421875l0.546875 0.09375q-0.09375 0.296875 -0.328125 0.453125q-0.234375 0.15625 -0.5625 0.15625q-0.546875 0 -0.8125 -0.359375q-0.203125 -0.28125 -0.203125 -0.703125q0 -0.515625 0.265625 -0.8125q0.28125 -0.296875 0.6875 -0.296875q0.46875 0 0.734375 0.3125q0.265625 0.296875 0.25 0.9375l-1.375 0q0.015625 0.234375 0.140625 0.375q0.125 0.140625 0.3125 0.140625q0.125 0 0.203125 -0.0625q0.09375 -0.078125 0.140625 -0.234375zm0.03125 -0.5625q0 -0.234375 -0.125 -0.359375q-0.109375 -0.125 -0.28125 -0.125q-0.171875 0 -0.296875 0.125q-0.109375 0.140625 -0.109375 0.359375l0.8125 0zm1.5214844 1.21875l-0.546875 0l0 -2.078125l0.515625 0l0 0.296875q0.125 -0.203125 0.21875 -0.265625q0.109375 -0.078125 0.25 -0.078125q0.1875 0 0.359375 0.109375l-0.171875 0.46875q-0.140625 -0.078125 -0.25 -0.078125q-0.125 0 -0.203125 0.0625q-0.078125 0.0625 -0.125 0.234375q-0.046875 0.15625 -0.046875 0.6875l0 0.640625zm0.9785156 0.140625l0.625 0.078125q0.015625 0.109375 0.078125 0.140625q0.078125 0.0625 0.25 0.0625q0.203125 0 0.3125 -0.0625q0.078125 -0.046875 0.109375 -0.140625q0.03125 -0.0625 0.03125 -0.25l0 -0.3125q-0.25 0.34375 -0.625 0.34375q-0.421875 0 -0.65625 -0.359375q-0.1875 -0.28125 -0.1875 -0.6875q0 -0.53125 0.25 -0.796875q0.25 -0.28125 0.625 -0.28125q0.375 0 0.625 0.34375l0 -0.296875l0.515625 0l0 1.859375q0 0.375 -0.0625 0.546875q-0.0625 0.1875 -0.171875 0.28125q-0.109375 0.109375 -0.296875 0.171875q-0.171875 0.0625 -0.453125 0.0625q-0.53125 0 -0.75 -0.1875q-0.21875 -0.171875 -0.21875 -0.453125q0 -0.03125 0 -0.0625zm0.5 -1.21875q0 0.328125 0.125 0.484375q0.125 0.15625 0.3125 0.15625q0.203125 0 0.34375 -0.15625q0.140625 -0.171875 0.140625 -0.46875q0 -0.328125 -0.140625 -0.484375q-0.125 -0.15625 -0.328125 -0.15625q-0.203125 0 -0.328125 0.15625q-0.125 0.15625 -0.125 0.46875zm3.1933594 0.421875l0.546875 0.09375q-0.09375 0.296875 -0.328125 0.453125q-0.234375 0.15625 -0.5625 0.15625q-0.546875 0 -0.8125 -0.359375q-0.203125 -0.28125 -0.203125 -0.703125q0 -0.515625 0.265625 -0.8125q0.28125 -0.296875 0.6875 -0.296875q0.46875 0 0.734375 0.3125q0.265625 0.296875 0.25 0.9375l-1.375 0q0.015625 0.234375 0.140625 0.375q0.125 0.140625 0.3125 0.140625q0.125 0 0.203125 -0.0625q0.09375 -0.078125 0.140625 -0.234375zm0.03125 -0.5625q0 -0.234375 -0.125 -0.359375q-0.109375 -0.125 -0.28125 -0.125q-0.171875 0 -0.296875 0.125q-0.109375 0.140625 -0.109375 0.359375l0.8125 0zm1.8203125 1.265625l0.703125 -2.953125l0.40625 0l-0.703125 2.953125l-0.40625 0zm3.0351562 -0.046875l-0.546875 0l0 -2.078125l0.515625 0l0 0.296875q0.125 -0.203125 0.21875 -0.265625q0.109375 -0.078125 0.25 -0.078125q0.1875 0 0.359375 0.109375l-0.171875 0.46875q-0.140625 -0.078125 -0.25 -0.078125q-0.125 0 -0.203125 0.0625q-0.078125 0.0625 -0.125 0.234375q-0.046875 0.15625 -0.046875 0.6875l0 0.640625zm2.2285156 -0.65625l0.546875 0.09375q-0.09375 0.296875 -0.328125 0.453125q-0.234375 0.15625 -0.5625 0.15625q-0.546875 0 -0.8125 -0.359375q-0.203125 -0.28125 -0.203125 -0.703125q0 -0.515625 0.265625 -0.8125q0.28125 -0.296875 0.6875 -0.296875q0.46875 0 0.734375 0.3125q0.265625 0.296875 0.25 0.9375l-1.375 0q0.015625 0.234375 0.140625 0.375q0.125 0.140625 0.3125 0.140625q0.125 0 0.203125 -0.0625q0.09375 -0.078125 0.140625 -0.234375zm0.03125 -0.5625q0 -0.234375 -0.125 -0.359375q-0.109375 -0.125 -0.28125 -0.125q-0.171875 0 -0.296875 0.125q-0.109375 0.140625 -0.109375 0.359375l0.8125 0zm2.8964844 1.21875l-0.5 0l0 -0.3125q-0.140625 0.1875 -0.3125 0.28125q-0.171875 0.078125 -0.34375 0.078125q-0.359375 0 -0.609375 -0.28125q-0.25 -0.296875 -0.25 -0.8125q0 -0.53125 0.234375 -0.796875q0.25 -0.28125 0.640625 -0.28125q0.34375 0 0.59375 0.296875l0 -1.03125l0.546875 0l0 2.859375zm-1.46875 -1.078125q0 0.328125 0.09375 0.46875q0.140625 0.21875 0.375 0.21875q0.1875 0 0.3125 -0.15625q0.140625 -0.15625 0.140625 -0.484375q0 -0.359375 -0.125 -0.515625q-0.125 -0.15625 -0.328125 -0.15625q-0.203125 0 -0.34375 0.15625q-0.125 0.15625 -0.125 0.46875zm2.4277344 -0.359375l-0.5 -0.09375q0.078125 -0.296875 0.28125 -0.4375q0.203125 -0.15625 0.609375 -0.15625q0.375 0 0.546875 0.09375q0.1875 0.078125 0.25 0.21875q0.078125 0.125 0.078125 0.484375l0 0.640625q0 0.28125 0.015625 0.40625q0.03125 0.125 0.109375 0.28125l-0.546875 0q-0.015625 -0.0625 -0.046875 -0.15625q-0.015625 -0.0625 -0.03125 -0.078125q-0.140625 0.140625 -0.296875 0.21875q-0.15625 0.0625 -0.34375 0.0625q-0.3125 0 -0.5 -0.171875q-0.1875 -0.171875 -0.1875 -0.4375q0 -0.1875 0.078125 -0.3125q0.09375 -0.140625 0.234375 -0.21875q0.15625 -0.078125 0.453125 -0.125q0.375 -0.078125 0.53125 -0.140625l0 -0.046875q0 -0.15625 -0.078125 -0.21875q-0.078125 -0.078125 -0.296875 -0.078125q-0.15625 0 -0.234375 0.0625q-0.078125 0.046875 -0.125 0.203125zm0.734375 0.4375q-0.109375 0.03125 -0.34375 0.09375q-0.21875 0.046875 -0.296875 0.09375q-0.109375 0.078125 -0.109375 0.1875q0 0.109375 0.078125 0.203125q0.09375 0.078125 0.234375 0.078125q0.140625 0 0.28125 -0.09375q0.09375 -0.078125 0.125 -0.1875q0.03125 -0.0625 0.03125 -0.265625l0 -0.109375zm2.8808594 -0.46875l-0.53125 0.109375q-0.03125 -0.171875 -0.140625 -0.25q-0.09375 -0.078125 -0.234375 -0.078125q-0.21875 0 -0.34375 0.140625q-0.109375 0.140625 -0.109375 0.46875q0 0.375 0.125 0.53125q0.125 0.140625 0.328125 0.140625q0.15625 0 0.25 -0.078125q0.109375 -0.09375 0.140625 -0.3125l0.546875 0.09375q-0.078125 0.375 -0.328125 0.5625q-0.234375 0.1875 -0.640625 0.1875q-0.453125 0 -0.71875 -0.28125q-0.265625 -0.296875 -0.265625 -0.796875q0 -0.515625 0.265625 -0.796875q0.265625 -0.296875 0.734375 -0.296875q0.375 0 0.59375 0.171875q0.234375 0.15625 0.328125 0.484375zm1.3652344 -0.609375l0 0.4375l-0.375 0l0 0.84375q0 0.25 0.015625 0.296875q0.015625 0.03125 0.046875 0.0625q0.046875 0.03125 0.09375 0.03125q0.078125 0 0.21875 -0.0625l0.046875 0.4375q-0.1875 0.078125 -0.4375 0.078125q-0.140625 0 -0.265625 -0.046875q-0.109375 -0.046875 -0.171875 -0.125q-0.046875 -0.09375 -0.078125 -0.21875q-0.015625 -0.09375 -0.015625 -0.390625l0 -0.90625l-0.25 0l0 -0.4375l0.25 0l0 -0.40625l0.546875 -0.328125l0 0.734375l0.375 0z" fill-rule="nonzero"/></g></svg>